<svg width="92" height="24" viewBox="0 0 92 24" fill="none" xmlns="http://www.w3.org/2000/svg">
<g clip-path="url(#clip0_922_410)">
<path d="M90.453 0C89.5996 0 88.9043 0.710451 88.9043 1.58766C88.9043 2.46488 89.5973 3.17533 90.453 3.17533C91.3088 3.17533 92.0018 2.46488 92.0018 1.58766C92.0018 0.710451 91.3088 0 90.453 0ZM90.453 2.9743C89.7065 2.9743 89.1004 2.35294 89.1004 1.58766C89.1004 0.822387 89.7065 0.198744 90.453 0.198744C91.1996 0.198744 91.8079 0.824672 91.8079 1.58766C91.8079 2.35066 91.1973 2.9743 90.453 2.9743Z" fill="white"/>
<path d="M90.7824 1.72239C90.8626 1.69041 90.925 1.64015 90.974 1.57391C91.032 1.49395 91.0609 1.39344 91.0609 1.27465C91.0609 1.13073 91.0119 1.01194 90.9183 0.925133C90.8292 0.838326 90.6955 0.794922 90.5417 0.794922H89.9512V2.38487H90.1918V1.7658H90.5417L90.8269 2.35974L90.8403 2.38487H91.1055L90.7846 1.72239H90.7824ZM90.8158 1.2815C90.8158 1.36146 90.7935 1.42542 90.7467 1.46882C90.6999 1.51223 90.6286 1.53507 90.5417 1.53507H90.1896V1.02793H90.5395C90.6264 1.02793 90.6977 1.05078 90.7445 1.09418C90.7935 1.1353 90.8158 1.19926 90.8158 1.2815Z" fill="white"/>
<path d="M34.1285 0H30.2979V17.8915H34.1285V0Z" fill="white"/>
<path d="M50.0679 5.55127H46.2373V17.8916H50.0679V5.55127Z" fill="white"/>
<path d="M39.4342 0H35.6035V17.8915H39.4342V0Z" fill="white"/>
<path d="M44.7379 0H40.9072V17.8915H44.7379V0Z" fill="white"/>
<path d="M87.5986 5.55111V9.11936C86.4911 9.11936 85.8047 9.49857 85.3746 10.3529C85.2766 10.5471 85.203 10.7459 85.1451 10.9355V17.8915H81.3145V0H85.1451V6.01028C85.8782 5.70645 86.7028 5.55111 87.5986 5.55111Z" fill="white"/>
<path d="M79.7566 11.687V17.8892H76.2736V11.687C76.2357 11.3718 76.1399 10.8464 75.8881 10.3484C75.4736 9.53055 74.8296 9.14906 73.8023 9.11708C72.7773 9.14677 72.1288 9.53055 71.7165 10.3484C71.3533 11.0634 71.311 11.8447 71.3087 11.9612H71.3043V17.8915H67.4736V0H71.3043V6.08795C72.0085 5.76585 72.7995 5.58538 73.6642 5.55568C73.711 5.5534 73.7555 5.55111 73.8023 5.55111C73.8491 5.55111 73.8959 5.55111 73.9405 5.55568C76.2692 5.64249 78.0742 6.80982 79.0458 8.86808C79.594 10.0308 79.7232 11.1708 79.7544 11.687H79.7566Z" fill="white"/>
<path d="M14.1749 7.83781V0.12793H10.3443V6.59509C9.13426 5.82753 7.72813 5.45289 6.19944 5.50314C5.92758 5.50543 4.59276 5.56254 3.22674 6.24101C1.22563 7.23929 0.0869081 9.09652 0.00445682 11.4883C0.00222841 11.5363 0 11.582 0 11.6322C0 11.6825 0 11.7282 0.00445682 11.7761C0.0869081 14.1702 1.22563 16.0251 3.22897 17.0234C4.59499 17.7042 5.9298 17.759 6.20167 17.7636C6.28858 17.7659 6.37326 17.7681 6.46017 17.7681C7.88858 17.7681 9.20334 17.3935 10.3465 16.6693V17.8915H14.1772V15.0406C14.1772 13.4323 13.2412 12.0525 11.8975 11.4403C13.2412 10.8281 14.1772 9.44603 14.1772 7.84009L14.1749 7.83781ZM10.1905 11.6345C10.0635 11.9497 9.03844 14.2867 6.29304 14.1953H6.24401C6.16156 14.1907 5.38162 14.1542 4.66852 13.7727C3.87298 13.3478 3.50084 12.683 3.47187 11.6299C3.50084 10.5745 3.87298 9.91205 4.66852 9.48715C5.37716 9.11022 6.14819 9.07139 6.24178 9.06682H6.29304C7.50084 9.0257 8.47688 9.41405 9.27688 10.2524C9.83398 10.8372 10.117 11.4609 10.1905 11.6322V11.6345Z" fill="white"/>
<path d="M65.7738 8.4045V5.55127H61.941V6.77343C60.7978 6.04927 59.483 5.67463 58.0568 5.67463C57.9699 5.67463 57.883 5.67463 57.7961 5.67691C57.5243 5.6792 56.1894 5.73631 54.8234 6.41706C52.8201 7.41763 51.6814 9.27257 51.5989 11.6666C51.5989 11.7146 51.5967 11.7626 51.5967 11.8106C51.5967 11.8608 51.5989 11.9065 51.5989 11.9545C51.6814 14.3508 52.8223 16.2035 54.8234 17.204C55.4741 17.5284 56.1137 17.7089 56.6374 17.814C56.1137 17.9145 55.4741 18.0972 54.8234 18.4193C52.8201 19.4199 51.6814 21.2749 51.5989 23.6689C51.5989 23.7169 51.5967 23.7649 51.5967 23.8128C51.5967 23.8631 51.5989 23.9111 51.5989 23.9568C51.6011 23.975 51.6011 23.991 51.6011 24.007H55.0797C55.0775 23.943 55.0708 23.8837 55.0663 23.8128C55.0953 22.7597 55.4697 22.0972 56.2652 21.6701C56.9761 21.2886 57.7582 21.252 57.8385 21.2474H57.8875C60.6351 21.1584 61.9387 23.3742 61.9387 23.8265V24.0047H65.7716V15.6095C65.7716 14.0013 64.8335 12.6215 63.4897 12.007C64.8335 11.3971 65.7716 10.015 65.7716 8.40907L65.7738 8.4045ZM57.8407 14.3737C57.7471 14.3714 56.9738 14.3325 56.2674 13.9556C55.4719 13.5307 55.0975 12.8682 55.0685 11.8106C55.0975 10.7574 55.4719 10.095 56.2674 9.66777C56.9783 9.28628 57.7605 9.24973 57.8407 9.24516H57.8897C60.6373 9.15607 61.6624 11.4907 61.7894 11.806C61.7159 11.9796 61.4307 12.6032 60.8736 13.1858C60.0758 14.0264 59.0975 14.4148 57.8897 14.3737H57.8407ZM61.9432 18.7711C61.1967 18.2983 60.3744 17.9739 59.4942 17.8094C60.3722 17.6404 61.1967 17.3205 61.9432 16.8477V18.7711Z" fill="white"/>
<path d="M28.8248 5.55127H24.9941V17.8916H28.8248V5.55127Z" fill="white"/>
<path d="M23.5213 5.54883V9.48715H19.5569V17.711H15.7285V9.56939C15.7285 9.52827 15.7285 9.48715 15.7307 9.44603V5.54883" fill="white"/>
</g>
<defs>
<clipPath id="clip0_922_410">
<rect width="92" height="24" fill="white"/>
</clipPath>
</defs>
</svg>
