<svg width="16" height="16" viewBox="0 0 16 16" fill="none" xmlns="http://www.w3.org/2000/svg">
<path d="M8.33333 5.33333C8.33333 5.51743 8.1841 5.66667 8 5.66667C7.81591 5.66667 7.66667 5.51743 7.66667 5.33333C7.66667 5.14924 7.81591 5 8 5C8.1841 5 8.33333 5.14924 8.33333 5.33333Z" stroke="#FDFDFD" stroke-width="0.666667"/>
<path d="M8.33333 7.99999C8.33333 8.18408 8.1841 8.33332 8 8.33332C7.81591 8.33332 7.66667 8.18408 7.66667 7.99999C7.66667 7.81589 7.81591 7.66666 8 7.66666C8.1841 7.66666 8.33333 7.81589 8.33333 7.99999Z" stroke="#FDFDFD" stroke-width="0.666667"/>
<path d="M8.33333 10.6667C8.33333 10.8508 8.1841 11 8 11C7.81591 11 7.66667 10.8508 7.66667 10.6667C7.66667 10.4826 7.81591 10.3333 8 10.3333C8.1841 10.3333 8.33333 10.4826 8.33333 10.6667Z" stroke="#FDFDFD" stroke-width="0.666667"/>
</svg>
