<svg width="24" height="24" viewBox="0 0 24 24" fill="none" xmlns="http://www.w3.org/2000/svg">
<path d="M23.7031 11.4251L21.1352 9.61466C20.6699 9.28668 20.0268 9.62066 20.0268 10.1893V11.2966H7.69682C7.30851 11.2966 6.99365 11.6114 6.99365 11.9998C6.99365 12.3882 7.30851 12.7029 7.69682 12.7029H20.0267V13.8102C20.0267 14.3826 20.6732 14.7103 21.135 14.3848L23.703 12.5744C24.0951 12.2982 24.1031 11.7076 23.7031 11.4251Z" fill="#FDFDFD"/>
<path d="M20.1783 16.5148C19.8423 16.3205 19.4121 16.4352 19.2176 16.7714C17.5659 19.6268 14.4784 21.5438 10.9501 21.5438C5.68767 21.5438 1.4063 17.2624 1.4063 11.9999C1.4063 6.73747 5.68767 2.4561 10.9501 2.4561C14.4807 2.4561 17.5668 4.37483 19.2175 7.2284C19.412 7.56458 19.8423 7.67929 20.1783 7.48499C20.5144 7.29055 20.6293 6.86038 20.4349 6.52424C18.5352 3.24027 14.9873 1.0498 10.9501 1.0498C4.89797 1.0498 0 5.94726 0 11.9999C0 18.0521 4.89745 22.9501 10.9501 22.9501C14.989 22.9501 18.5361 20.7581 20.4349 17.4755C20.6293 17.1394 20.5145 16.7093 20.1783 16.5148Z" fill="#FDFDFD"/>
</svg>
