<svg width="24" height="24" viewBox="0 0 24 24" fill="none" xmlns="http://www.w3.org/2000/svg">
<path d="M9.75001 8.40001H2.55001C1.80571 8.40001 1.20001 7.79431 1.20001 7.05001V2.55001C1.20001 1.80571 1.80571 1.20001 2.55001 1.20001H9.75001C10.4943 1.20001 11.1 1.80571 11.1 2.55001V7.05001C11.1 7.79431 10.4943 8.40001 9.75001 8.40001ZM2.55001 2.10001C2.30251 2.10001 2.10001 2.30161 2.10001 2.55001V7.05001C2.10001 7.29841 2.30251 7.50001 2.55001 7.50001H9.75001C9.99751 7.50001 10.2 7.29841 10.2 7.05001V2.55001C10.2 2.30161 9.99751 2.10001 9.75001 2.10001H2.55001Z" fill="#FDFDFD"/>
<path d="M9.75002 22.8004H2.55001C1.80571 22.8004 1.20001 22.1947 1.20001 21.4504V11.5503C1.20001 10.806 1.80571 10.2003 2.55001 10.2003H9.75002C10.4943 10.2003 11.1 10.806 11.1 11.5503V21.4504C11.1 22.1947 10.4943 22.8004 9.75002 22.8004ZM2.55001 11.1003C2.30251 11.1003 2.10001 11.3019 2.10001 11.5503V21.4504C2.10001 21.6988 2.30251 21.9004 2.55001 21.9004H9.75002C9.99752 21.9004 10.2 21.6988 10.2 21.4504V11.5503C10.2 11.3019 9.99752 11.1003 9.75002 11.1003H2.55001Z" fill="#FDFDFD"/>
<path d="M21.4498 22.8004H14.2498C13.5055 22.8004 12.8998 22.1946 12.8998 21.4503V16.9503C12.8998 16.206 13.5055 15.6003 14.2498 15.6003H21.4498C22.1941 15.6003 22.7998 16.206 22.7998 16.9503V21.4503C22.7998 22.1946 22.1941 22.8004 21.4498 22.8004ZM14.2498 16.5003C14.0023 16.5003 13.7998 16.7019 13.7998 16.9503V21.4503C13.7998 21.6987 14.0023 21.9003 14.2498 21.9003H21.4498C21.6973 21.9003 21.8998 21.6987 21.8998 21.4503V16.9503C21.8998 16.7019 21.6973 16.5003 21.4498 16.5003H14.2498Z" fill="#FDFDFD"/>
<path d="M21.4498 13.8H14.2498C13.5055 13.8 12.8998 13.1943 12.8998 12.45V2.55001C12.8998 1.80571 13.5055 1.20001 14.2498 1.20001H21.4498C22.1941 1.20001 22.7998 1.80571 22.7998 2.55001V12.45C22.7998 13.1943 22.1941 13.8 21.4498 13.8ZM14.2498 2.10001C14.0023 2.10001 13.7998 2.30161 13.7998 2.55001V12.45C13.7998 12.6984 14.0023 12.9 14.2498 12.9H21.4498C21.6973 12.9 21.8998 12.6984 21.8998 12.45V2.55001C21.8998 2.30161 21.6973 2.10001 21.4498 2.10001H14.2498Z" fill="#FDFDFD"/>
</svg>
