<svg width="24" height="24" viewBox="0 0 24 24" fill="none" xmlns="http://www.w3.org/2000/svg">
<g clip-path="url(#clip0_842_9203)">
<path d="M10.2828 10.1171L7.08278 6.91712C6.92636 6.7607 6.67356 6.7607 6.51718 6.91712C6.36081 7.07354 6.36081 7.32634 6.51718 7.48271L9.71716 10.6827C9.79516 10.7607 9.89758 10.7999 9.99995 10.7999C10.1024 10.7999 10.2048 10.7607 10.2828 10.6827C10.4392 10.5263 10.4392 10.2735 10.2828 10.1171Z" fill="#FDFDFD"/>
<path d="M10.2828 6.91712C10.1264 6.7607 9.87358 6.7607 9.7172 6.91712L6.51718 10.1171C6.36081 10.2736 6.36081 10.5264 6.51718 10.6827C6.59518 10.7607 6.69761 10.7999 6.79998 10.7999C6.90236 10.7999 7.00478 10.7607 7.08278 10.6827L10.2828 7.48271C10.4392 7.32634 10.4392 7.07354 10.2828 6.91712Z" fill="#FDFDFD"/>
<path d="M17.4826 19.7173L15.8826 18.1173C15.7262 17.9609 15.4734 17.9609 15.317 18.1173C15.1606 18.2737 15.1606 18.5265 15.317 18.6829L16.917 20.2829C16.995 20.3609 17.0974 20.4001 17.1998 20.4001C17.3022 20.4001 17.4046 20.3609 17.4826 20.2829C17.639 20.1265 17.639 19.8737 17.4826 19.7173Z" fill="#FDFDFD"/>
<path d="M17.4826 18.1173C17.3261 17.9609 17.0733 17.9609 16.917 18.1173L15.317 19.7173C15.1606 19.8737 15.1606 20.1265 15.317 20.2829C15.395 20.3609 15.4974 20.4001 15.5998 20.4001C15.7022 20.4001 15.8046 20.3609 15.8826 20.2829L17.4826 18.6829C17.639 18.5265 17.639 18.2737 17.4826 18.1173Z" fill="#FDFDFD"/>
<path d="M8.80018 16.3999C7.91776 16.3999 7.2002 17.1175 7.2002 17.9999C7.2002 18.8823 7.9178 19.5999 8.80018 19.5999C9.68255 19.5999 10.4002 18.8823 10.4002 17.9999C10.4002 17.1175 9.6826 16.3999 8.80018 16.3999ZM8.80018 18.7999C8.35899 18.7999 8.00016 18.4411 8.00016 17.9999C8.00016 17.5587 8.35895 17.1999 8.80018 17.1999C9.24141 17.1999 9.6002 17.5587 9.6002 17.9999C9.6002 18.4411 9.24141 18.7999 8.80018 18.7999Z" fill="#FDFDFD"/>
<path d="M15.2001 13.2002C14.3177 13.2002 13.6001 13.9178 13.6001 14.8002C13.6001 15.6826 14.3177 16.4002 15.2001 16.4002C16.0825 16.4002 16.8001 15.6826 16.8001 14.8002C16.8001 13.9178 16.0825 13.2002 15.2001 13.2002ZM15.2001 15.6002C14.7589 15.6002 14.4001 15.2414 14.4001 14.8002C14.4001 14.359 14.7588 14.0002 15.2001 14.0002C15.6413 14.0002 16.0001 14.3589 16.0001 14.8002C16.0001 15.2414 15.6413 15.6002 15.2001 15.6002Z" fill="#FDFDFD"/>
<path d="M14.7999 7.6001C14.5791 7.6001 14.3999 7.77888 14.3999 8.00008C14.3999 11.0881 11.8879 13.6001 8.79989 13.6001C8.57911 13.6001 8.3999 13.7789 8.3999 14.0001C8.3999 14.2213 8.57911 14.4001 8.79989 14.4001C12.3287 14.4001 15.1999 11.5289 15.1999 8.00008C15.1999 7.77893 15.0207 7.6001 14.7999 7.6001Z" fill="#FDFDFD"/>
<path d="M16.6827 9.3174L15.0827 7.71741C14.9263 7.56099 14.6735 7.56099 14.5171 7.71741L12.9171 9.3174C12.7607 9.47377 12.7607 9.72661 12.9171 9.88299C13.0735 10.0394 13.3263 10.0394 13.4827 9.88299L14.7999 8.5658L16.1171 9.88299C16.1951 9.96099 16.2975 10.0002 16.3999 10.0002C16.5023 10.0002 16.6047 9.96099 16.6827 9.88299C16.8391 9.72661 16.8391 9.47377 16.6827 9.3174Z" fill="#FDFDFD"/>
<path d="M15.3882 1.2H14.3646C14.067 1.2 13.7826 1.0552 13.6038 0.812391C13.2294 0.303984 12.6298 0 12.0002 0C11.3706 0 10.771 0.303984 10.3966 0.812391C10.2178 1.0552 9.93338 1.2 9.63582 1.2H8.61221C7.83343 1.2 7.2002 1.83361 7.2002 2.61202V4.8C7.2002 5.0212 7.3794 5.19998 7.60018 5.19998H16.4002C16.6209 5.19998 16.8001 5.0212 16.8001 4.8V2.61202C16.8002 1.83361 16.167 1.2 15.3882 1.2ZM16.0002 4.40002H8.00021V2.61202C8.00021 2.2748 8.27499 2.00002 8.61221 2.00002H9.63582C10.1866 2.00002 10.7118 1.73363 11.041 1.28681C11.2686 0.977203 11.6183 0.800016 12.0002 0.800016C12.3822 0.800016 12.7318 0.977203 12.9598 1.28681C13.2886 1.73363 13.8138 2.00002 14.3646 2.00002H15.3882C15.7254 2.00002 16.0002 2.2748 16.0002 2.61202V4.40002H16.0002Z" fill="#FDFDFD"/>
<path d="M19.1998 2H16.3998C16.1791 2 15.9999 2.17878 15.9999 2.39998V4.4H7.99984V2.39998C7.99984 2.17878 7.82063 2 7.59985 2H4.79982C3.69704 2 2.7998 2.89719 2.7998 4.00002V22C2.7998 23.1028 3.69704 24 4.79982 24H19.1998C20.3026 24 21.1998 23.1028 21.1998 22V3.99997C21.1998 2.89719 20.3026 2 19.1998 2ZM20.3998 22C20.3998 22.6616 19.8614 23.2 19.1998 23.2H4.79982C4.13823 23.2 3.59982 22.6616 3.59982 22V3.99997C3.59982 3.33838 4.13823 2.79997 4.79982 2.79997H7.19982V4.79999C7.19982 5.02119 7.37902 5.19997 7.5998 5.19997H16.3998C16.6206 5.19997 16.7998 5.02119 16.7998 4.79999V2.79997H19.1998C19.8614 2.79997 20.3998 3.33838 20.3998 3.99997V22H20.3998Z" fill="#FDFDFD"/>
<path d="M18.3999 3.6001H16.3999C16.1791 3.6001 15.9999 3.77888 15.9999 4.00008V4.40007H7.9999V4.00008C7.9999 3.77888 7.8207 3.6001 7.59992 3.6001H5.5999C4.93831 3.6001 4.3999 4.1385 4.3999 4.8001V21.2001C4.3999 21.8617 4.93831 22.4001 5.5999 22.4001H18.3999C19.0615 22.4001 19.5999 21.8617 19.5999 21.2001V4.8001C19.5999 4.1385 19.0615 3.6001 18.3999 3.6001ZM18.7999 21.2001C18.7999 21.4209 18.6203 21.6001 18.3999 21.6001H5.5999C5.3795 21.6001 5.19992 21.4209 5.19992 21.2001V4.8001C5.19992 4.57932 5.3795 4.40011 5.5999 4.40011H7.19989V4.8001C7.19989 5.0213 7.37909 5.20008 7.59987 5.20008H16.3999C16.6206 5.20008 16.7998 5.0213 16.7998 4.8001V4.40011H18.3998C18.6202 4.40011 18.7998 4.57932 18.7998 4.8001V21.2001H18.7999Z" fill="#FDFDFD"/>
<path d="M12.4018 1.6001H11.5978C11.1578 1.6001 10.7998 1.95808 10.7998 2.3981V3.2021C10.7998 3.64211 11.1578 4.0001 11.5978 4.0001H12.4018C12.8418 4.0001 13.1998 3.64211 13.1998 3.2021V2.3981C13.1998 1.95813 12.8418 1.6001 12.4018 1.6001ZM11.5998 3.2021L11.5978 2.40011L12.3998 2.3981L12.4002 3.20008L11.5998 3.2021Z" fill="#FDFDFD"/>
</g>
<defs>
<clipPath id="clip0_842_9203">
<rect width="24" height="24" fill="white"/>
</clipPath>
</defs>
</svg>
