<svg width="24" height="24" viewBox="0 0 24 24" fill="none" xmlns="http://www.w3.org/2000/svg">
<g clip-path="url(#clip0_842_9242)">
<path d="M23.9844 13.4884C23.9999 13.4187 23.9962 13.3461 23.9736 13.2784C23.6993 9.31527 20.4199 6.23144 16.4474 6.20099C15.1215 1.75659 10.4438 -0.771549 5.99937 0.554321C1.55492 1.88019 -0.973178 6.55793 0.352643 11.0023C1.05073 13.3423 2.73274 15.2626 4.96044 16.2628C4.17256 16.6843 3.44062 17.2028 2.78169 17.8063L1.64051 18.8523C1.15192 19.3001 1.11883 20.0591 1.56662 20.5477C1.61666 20.6023 1.67166 20.6522 1.73091 20.6967L3.01728 21.6614C4.86894 23.0443 7.11694 23.7936 9.42794 23.7982H10.5727C12.8835 23.7934 15.1312 23.0441 16.9826 21.6614L17.4354 21.3219C21.199 20.8122 24.0049 17.5964 24 13.7984C24 13.6936 23.9884 13.592 23.9844 13.4884ZM21.8869 9.79851C22.6109 10.7847 23.0533 11.9491 23.1668 13.1672L22.8276 13.3368L20.8637 12.0277L21.5017 9.79851H21.8869ZM19.1805 7.60056C19.9369 7.9393 20.6251 8.41304 21.2117 8.99853H21.2001C21.0215 8.99868 20.8646 9.11718 20.8157 9.28892L20.0661 11.9121L18.7809 12.5049L16.8002 11.1845V9.60692L19.0297 8.04695C19.1716 7.9467 19.2325 7.76636 19.1805 7.60056ZM10.1455 9.49172C10.1026 9.52677 10.0675 9.57037 10.0423 9.61972C10.0377 9.63402 10.0338 9.64857 10.0307 9.66331L8.96595 8.59854L10.2367 7.32777C10.5747 7.63506 10.9371 7.91435 11.3203 8.16295H11.3195C10.8779 8.55884 10.484 9.00473 10.1455 9.49172ZM9.61913 10.3825C9.16554 11.28 8.8961 12.2592 8.82675 13.2624C8.45671 12.2151 7.88087 11.2524 7.13319 10.4309L8.39956 9.16293L9.61913 10.3825ZM10.5635 10.3273L10.8835 10.4873L11.5291 12.1009L9.92033 13.7116L9.61154 13.5572C9.65078 12.4175 9.97833 11.3062 10.5635 10.3273ZM9.82113 14.5544C9.97513 14.6313 10.1611 14.601 10.2827 14.4792L12.0963 12.666L13.6694 13.2952L14.4154 15.906C14.4227 15.9262 14.4318 15.9458 14.4426 15.9644C13.0485 15.3269 11.5333 14.9974 10.0003 14.9984C9.90593 14.9984 9.81193 15.0024 9.71753 15.0048L9.71673 15.0028C9.68473 14.8236 9.65433 14.6428 9.63673 14.462L9.82113 14.5544ZM13.9534 12.5488L12.3079 11.8905L11.5719 10.0505C11.5355 9.95936 11.4669 9.88476 11.3791 9.84091L11.0191 9.66011C11.7033 8.76958 12.5966 8.0615 13.6198 7.59856C13.5678 7.76431 13.6288 7.9447 13.7706 8.04495L16.0002 9.60692V11.1845L13.9534 12.5488ZM16.4002 11.8785L18.2937 13.1436C18.2969 13.152 18.2961 13.1608 18.3001 13.1692C18.3075 13.1831 18.3158 13.1965 18.3249 13.2092L17.6986 15.3984H15.1018L14.465 13.1692L16.4002 11.8785ZM18.2213 7.25377V7.25577L18.3253 7.56416L16.4002 8.91013L14.475 7.56216L14.579 7.25377C15.7693 6.91353 17.0311 6.91353 18.2213 7.25377ZM15.625 6.23859C14.3091 6.37469 13.052 6.85428 11.9799 7.62936C11.5607 7.37857 11.1666 7.08802 10.8031 6.76178L14.0474 3.51865C14.7574 4.30529 15.2948 5.23177 15.625 6.23859ZM13.477 2.95587L10.2371 6.19579C9.10455 4.94007 8.42461 3.34156 8.30556 1.6547L8.25916 1.00911C10.1826 0.971462 12.0483 1.66755 13.477 2.95587ZM7.46158 1.06751L7.50758 1.71149C7.63963 3.5907 8.40161 5.37041 9.67033 6.76298L8.40036 8.03295L3.32368 2.95587C4.4761 1.91614 5.92097 1.25676 7.46158 1.06751ZM2.75809 3.52145L7.83477 8.59854L6.568 9.86531C5.17413 8.59709 3.39327 7.83606 1.51332 7.70536L0.868931 7.65936C1.05843 6.1187 1.71806 4.67383 2.75809 3.52145ZM0.810932 8.45734L1.45652 8.50334C3.14383 8.62124 4.74329 9.30002 6.00042 10.4317L2.75689 13.6756C1.46892 12.2466 0.773133 10.3808 0.810932 8.45734ZM3.31808 14.2468L6.568 10.9985C7.59873 12.147 8.25356 13.5831 8.44476 15.1144C7.59133 15.2394 6.7563 15.4677 5.95802 15.7944C4.98244 15.4623 4.08436 14.9359 3.31808 14.2468ZM17.8453 20.0071C17.8286 20.0253 17.8103 20.0419 17.7906 20.0567L16.5022 21.0219C14.7895 22.3008 12.7102 22.9939 10.5727 22.9983H9.42794C7.29044 22.9939 5.21118 22.3008 3.49847 21.0219L2.2117 20.0567C2.03495 19.9242 1.99911 19.6735 2.13165 19.4967C2.14645 19.477 2.1631 19.4586 2.1813 19.4419L3.32048 18.396C4.13481 17.6538 5.06769 17.0532 6.08041 16.6192C6.14116 16.6079 6.19841 16.5826 6.24761 16.5452C9.78933 15.0824 13.8578 15.8041 16.6802 18.396L17.8209 19.4419C17.9837 19.5912 17.9947 19.8442 17.8453 20.0071ZM17.219 17.8063C16.5258 17.1715 15.7519 16.6309 14.9174 16.1984H17.8345L18.7145 17.0783L17.9937 18.5183L17.219 17.8063ZM18.6429 20.2147C18.8046 19.8669 18.7807 19.4611 18.5793 19.1347L19.4473 17.3983H21.7529L21.9309 17.7543C21.1159 18.895 19.9671 19.7546 18.6429 20.2147ZM22.4228 16.9516L22.36 16.8196C22.2919 16.6833 22.1524 16.5975 22.0001 16.5984H19.3657L18.4493 15.682L19.1545 13.2136L20.3645 12.6556L22.578 14.1312C22.6972 14.2106 22.8498 14.2202 22.978 14.1564L23.1872 14.0516C23.1522 15.0632 22.891 16.0541 22.4228 16.9516Z" stroke-width="2" fill="#FDFDFD"/>
<path d="M13.6 18.9982H13.2V18.5982C13.2 18.3773 13.0209 18.1982 12.8 18.1982C12.5791 18.1982 12.4 18.3773 12.4 18.5982V18.9982H11.6V18.5982C11.6 18.3773 11.421 18.1982 11.2001 18.1982C10.9792 18.1982 10.8001 18.3773 10.8001 18.5982V18.9982H10.0001V18.5982C10.0001 18.3773 9.82099 18.1982 9.60009 18.1982C9.3792 18.1982 9.2001 18.3773 9.2001 18.5982V18.9982H8.40012V18.5982C8.40012 18.3773 8.22103 18.1982 8.00013 18.1982C7.77924 18.1982 7.60014 18.3773 7.60014 18.5982V18.9982H6.80016V18.5982C6.80016 18.3773 6.62106 18.1982 6.40017 18.1982C6.17927 18.1982 6.00018 18.3773 6.00018 18.5982V18.9982H5.60019C5.37929 18.9982 5.2002 19.1773 5.2002 19.3982C5.2002 19.6191 5.37929 19.7982 5.60019 19.7982H6.00018V20.1982C6.00018 20.4191 6.17927 20.5982 6.40017 20.5982C6.62106 20.5982 6.80016 20.4191 6.80016 20.1982V19.7982H7.60014V20.1982C7.60014 20.4191 7.77924 20.5982 8.00013 20.5982C8.22103 20.5982 8.40012 20.4191 8.40012 20.1982V19.7982H9.2001V20.1982C9.2001 20.4191 9.3792 20.5982 9.60009 20.5982C9.82099 20.5982 10.0001 20.4191 10.0001 20.1982V19.7982H10.8001V20.1982C10.8001 20.4191 10.9792 20.5982 11.2001 20.5982C11.421 20.5982 11.6 20.4191 11.6 20.1982V19.7982H12.4V20.1982C12.4 20.4191 12.5791 20.5982 12.8 20.5982C13.0209 20.5982 13.2 20.4191 13.2 20.1982V19.7982H13.6C13.8209 19.7982 14 19.6191 14 19.3982C14 19.1773 13.8209 18.9982 13.6 18.9982Z" stroke-width="2" fill="#FDFDFD"/>
</g>
<defs>
<clipPath id="clip0_842_9242">
<rect width="24" height="24" stroke-width="2" fill="white"/>
</clipPath>
</defs>
</svg>