<svg width="24" height="24" viewBox="0 0 24 24" fill="none" xmlns="http://www.w3.org/2000/svg">
<g clip-path="url(#clip0_2073_70756)">
<path d="M13.3066 5.09082H2.5974C1.16355 5.09244 0.00162338 6.25438 0 7.68822V16.309C0.00162338 17.7428 1.16355 18.9047 2.5974 18.9064H13.3066C14.7405 18.9047 15.9024 17.7428 15.904 16.309V7.68822C15.9024 6.25438 14.7405 5.09244 13.3066 5.09082V5.09082ZM14.8651 16.309C14.8642 17.1692 14.167 17.8664 13.3066 17.8674H2.5974C1.73701 17.8664 1.03998 17.1692 1.03896 16.309V7.68822C1.03998 6.82804 1.73701 6.1308 2.5974 6.12978H13.3066C14.167 6.1308 14.8642 6.82804 14.8651 7.68822V16.309Z" fill="#FDFDFD"/>
<path d="M23.7373 6.44332C23.5754 6.35079 23.3763 6.35241 23.2156 6.44718L17.4721 9.83841C17.3138 9.93196 17.2168 10.102 17.2168 10.2859V13.4186C17.2168 13.5791 17.2909 13.7307 17.4177 13.8291L23.1612 18.2881C23.3179 18.4096 23.5301 18.4316 23.7083 18.3443C23.8864 18.257 23.9993 18.076 23.9993 17.8778V6.89442C23.9993 6.70793 23.8992 6.53586 23.7373 6.44332ZM22.9603 16.8167L18.2558 13.1643V10.5825L22.9603 7.80453V16.8167Z" fill="#FDFDFD"/>
</g>
<defs>
<clipPath id="clip0_2073_70756">
<rect width="24" height="24" fill="white"/>
</clipPath>
</defs>
</svg>
