<svg width="24" height="24" viewBox="0 0 24 24" fill="none" xmlns="http://www.w3.org/2000/svg">
<path d="M10 9H14M20.5 4.57235V19.9788C20.5 19.9788 20.1886 20.0933 19.981 20.0933C19.981 20.0933 19.7805 20.1207 19.7258 20.0933C19.6636 20.062 19.3667 18.7725 19.3667 18.7725C19.3667 18.7725 17.2407 19.1617 17.1992 19.1708C17.1631 19.1788 17.1171 19.2202 17.0954 19.2547C17.0763 19.2849 17.0587 19.3317 17.0539 19.3805C17.0331 19.5901 16.9916 20.1352 16.9501 20.6593C16.9293 20.827 16.5349 20.9528 16.0989 20.9738C13.3379 21.0157 11.3242 20.9948 8.50081 20.9948C8.16866 20.9738 7.33826 20.9738 7.27598 20.6803C7.23446 20.24 7.19294 19.9256 7.15142 19.4434C7.13066 19.2966 7.06838 19.2128 6.98534 19.1918L6.91031 19.1763C5.93305 18.9749 5.24119 18.8323 4.41112 18.7096C4.32126 18.6963 4.24504 18.7306 4.22428 18.8354C4.18276 19.1499 4.18276 19.4853 4.12048 19.9675C4.09972 20.0723 4.09973 20.1142 3.99593 20.0933C3.82985 20.0513 3.51845 19.9675 3.51845 19.9675C3.51845 19.9675 3.47694 9.31036 3.51845 4.53042C3.5202 4.32844 3.78834 3.79666 4.162 3.7128C4.42812 3.66423 4.71355 3.61416 5.00597 3.56422C7.2733 3.17696 9.58587 3.01757 11.886 3.0109C14.3952 3.00362 16.8918 3.17851 19.3658 3.59715C19.6642 3.64765 19.8598 3.68306 19.8772 3.69183C20.0225 3.73376 20.1886 3.88051 20.2924 4.0063C20.4418 4.18739 20.5 4.42559 20.5 4.57235Z" stroke="white" stroke-width="2" stroke-linecap="round"/>
</svg>
