<svg width="20" height="20" viewBox="0 0 20 20" fill="none" xmlns="http://www.w3.org/2000/svg">
<g id="Arrow right">
<path id="Vector 48" d="M2.25 9.375C1.90482 9.375 1.625 9.65482 1.625 10C1.625 10.3452 1.90482 10.625 2.25 10.625V9.375ZM18.1919 10.4419C18.436 10.1979 18.436 9.80214 18.1919 9.55806L14.2145 5.58058C13.9704 5.3365 13.5747 5.3365 13.3306 5.58058C13.0865 5.82466 13.0865 6.22039 13.3306 6.46447L16.8661 10L13.3306 13.5355C13.0865 13.7796 13.0865 14.1753 13.3306 14.4194C13.5747 14.6635 13.9704 14.6635 14.2145 14.4194L18.1919 10.4419ZM2.25 10.625H17.75V9.375H2.25V10.625Z" fill="#77858D"/>
</g>
</svg>
