<svg width="20" height="20" viewBox="0 0 20 20" fill="none" xmlns="http://www.w3.org/2000/svg">
<g id="ball">
<path id="Ellipse 11" d="M18 10L15 8.22222M18 10C18 11.6446 17.5038 13.1732 16.6528 14.4444M18 10C18 7.91801 17.2047 6.02178 15.9013 4.59855M13.0199 2.58958C12.088 2.20947 11.0685 2 10 2C8.93152 2 7.91196 2.20947 6.98015 2.58958M13.0199 2.58958L10 5.11111M13.0199 2.58958C14.1255 3.04061 15.1076 3.73188 15.9013 4.59855M10 5.11111V6.88889M10 5.11111L6.98015 2.58958M10 6.88889L13.5556 9.55556M10 6.88889L6.44444 9.55556M13.5556 9.55556L12.2222 13.1111M13.5556 9.55556L15 8.22222M12.2222 13.1111H7.77778M12.2222 13.1111L13.1111 14.4444M7.77778 13.1111L6.44444 9.55556M7.77778 13.1111L6.88889 14.4444M6.44444 9.55556L5 8.22222M5 8.22222L2.04883 10.8889M5 8.22222L4.09872 4.59855M2.04883 10.8889C2.01656 10.597 2 10.3005 2 10C2 7.91801 2.79532 6.02178 4.09872 4.59855M2.04883 10.8889C2.43395 14.3727 5.05615 17.1823 8.44712 17.8494M15 8.22222L15.9013 4.59855M13.1111 14.4444H16.6528M13.1111 14.4444L11.5529 17.8494M16.6528 14.4444C15.4926 16.1777 13.673 17.4323 11.5529 17.8494M11.5529 17.8494C11.0505 17.9482 10.5313 18 10 18C9.46868 18 8.94946 17.9482 8.44712 17.8494M6.88889 14.4444L8.44712 17.8494M6.88889 14.4444H3.33333M4.09872 4.59855C4.89241 3.73188 5.87451 3.04061 6.98015 2.58958" stroke="#77858D" stroke-width="1.25"/>
</g>
</svg>
