<svg width="20" height="20" viewBox="0 0 20 20" fill="none" xmlns="http://www.w3.org/2000/svg">
<g id="E-cone">
<path id="Vector" d="M8.33366 7.49989H11.667M17.0837 3.81018V16.6489C17.0837 16.6489 16.8242 16.7443 16.6512 16.7443C16.6512 16.7443 16.4841 16.7672 16.4385 16.7443C16.3866 16.7182 16.1392 15.6436 16.1392 15.6436C16.1392 15.6436 14.3676 15.9679 14.333 15.9756C14.3029 15.9822 14.2646 16.0167 14.2465 16.0455C14.2306 16.0707 14.2159 16.1097 14.2119 16.1503C14.1946 16.325 14.16 16.7792 14.1254 17.216C14.1081 17.3558 13.7794 17.4606 13.4161 17.478C11.1152 17.513 9.43712 17.4955 7.08434 17.4955C6.80754 17.478 6.11554 17.4781 6.06364 17.2335C6.02904 16.8666 5.99444 16.6045 5.95984 16.2027C5.94254 16.0804 5.89065 16.0105 5.82145 15.9931L5.75892 15.9802C4.94453 15.8123 4.36798 15.6935 3.67626 15.5912C3.60137 15.5802 3.53786 15.6087 3.52056 15.6961C3.48596 15.9581 3.48596 16.2376 3.43406 16.6395C3.41676 16.7268 3.41676 16.7618 3.33026 16.7443C3.19186 16.7093 2.93237 16.6395 2.93237 16.6395C2.93237 16.6395 2.89777 7.75852 2.93237 3.77524C2.93383 3.60692 3.15727 3.16377 3.46866 3.09389C3.69043 3.05341 3.92828 3.01169 4.17197 2.97007C6.06141 2.64735 7.98855 2.51453 9.90534 2.50897C11.9963 2.5029 14.0768 2.64865 16.1385 2.99751C16.3872 3.0396 16.5502 3.0691 16.5647 3.07641C16.6858 3.11136 16.8242 3.23365 16.9107 3.33847C17.0352 3.48938 17.0837 3.68788 17.0837 3.81018Z" stroke="#77858D" stroke-width="1.25" stroke-linecap="round"/>
</g>
</svg>
