<svg width="20" height="20" viewBox="0 0 20 20" fill="none" xmlns="http://www.w3.org/2000/svg">
<g id="flag">
<path id="Icon" d="M11.742 5.60186H16.7035C17.0969 5.60186 17.2936 5.60186 17.4087 5.68458C17.5091 5.75676 17.5744 5.86785 17.5888 5.99066C17.6052 6.1314 17.5097 6.30337 17.3186 6.64731L16.1345 8.77863C16.0652 8.90337 16.0306 8.96573 16.017 9.03178C16.005 9.09024 16.005 9.15053 16.017 9.20898C16.0306 9.27503 16.0652 9.3374 16.1345 9.46213L17.3186 11.5934C17.5097 11.9374 17.6052 12.1094 17.5888 12.2501C17.5744 12.3729 17.5091 12.484 17.4087 12.5562C17.2936 12.6389 17.0969 12.6389 16.7035 12.6389H10.5105C10.0179 12.6389 9.77157 12.6389 9.5834 12.543C9.41789 12.4587 9.28332 12.3241 9.19899 12.1586C9.10312 11.9705 9.10312 11.7241 9.10312 11.2315V9.12038M6.02441 17.9167L2.5059 3.8426M3.82538 9.12038H10.3346C10.8272 9.12038 11.0736 9.12038 11.2617 9.02451C11.4272 8.94017 11.5618 8.80561 11.6461 8.64009C11.742 8.45193 11.742 8.20561 11.742 7.71297V3.49075C11.742 2.99811 11.742 2.75179 11.6461 2.56363C11.5618 2.39812 11.4272 2.26355 11.2617 2.17922C11.0736 2.08334 10.8272 2.08334 10.3346 2.08334H3.86864C3.2542 2.08334 2.94698 2.08334 2.73685 2.21066C2.55269 2.32224 2.41585 2.4975 2.35226 2.70324C2.27972 2.93797 2.35423 3.23602 2.50326 3.83211L3.82538 9.12038Z" stroke="#77858D" stroke-width="1.25" stroke-linecap="round" stroke-linejoin="round"/>
</g>
</svg>
