<svg width="20" height="20" viewBox="0 0 20 20" fill="none" xmlns="http://www.w3.org/2000/svg">
<g id="goal">
<path id="Rectangle 14" d="M2.00002 5C1.99997 6 2.00002 16 2.00002 16C2.00002 16 3 16 3.50002 16C4 16 5.50002 14.5 5.50002 14.5M2.00002 5C2.00007 4 3.00002 4 3.00002 4H17C17 4 18 4 18 5M2.00002 5L5.50002 7.5M14.5 14.5C14.5 14.5 16 16 16.5 16C17 16 18 16 18 16C18 16 18 6 18 5M14.5 14.5H5.50002M14.5 14.5V7.5M5.50002 14.5V7.5M18 5L14.5 7.5M14.5 7.5H5.50002" stroke="#77858D" stroke-width="1.25"/>
</g>
</svg>
