<svg width="20" height="20" viewBox="0 0 20 20" fill="none" xmlns="http://www.w3.org/2000/svg">
<g id="marker-pin">
<path id="Icon" d="M4.16666 11.9053C2.62385 12.5859 1.66666 13.5343 1.66666 14.5833C1.66666 16.6544 5.39762 18.3333 9.99999 18.3333C14.6024 18.3333 18.3333 16.6544 18.3333 14.5833C18.3333 13.5343 17.3761 12.5859 15.8333 11.9053M15 6.66666C15 10.0531 11.25 11.6667 9.99999 14.1667C8.74999 11.6667 4.99999 10.0531 4.99999 6.66666C4.99999 3.90523 7.23857 1.66666 9.99999 1.66666C12.7614 1.66666 15 3.90523 15 6.66666ZM10.8333 6.66666C10.8333 7.12689 10.4602 7.49999 9.99999 7.49999C9.53975 7.49999 9.16666 7.12689 9.16666 6.66666C9.16666 6.20642 9.53975 5.83332 9.99999 5.83332C10.4602 5.83332 10.8333 6.20642 10.8333 6.66666Z" stroke="#77858D" stroke-width="1.25" stroke-linecap="round" stroke-linejoin="round"/>
</g>
</svg>
