<svg width="36" height="37" viewBox="0 0 36 37" fill="none" xmlns="http://www.w3.org/2000/svg">
<g id="Equipement-plot" filter="url(#filter0_di_1105_51074)">
<rect width="36" height="36" rx="18" fill="url(#paint0_linear_1105_51074)" shape-rendering="crispEdges"/>
<rect x="0.25" y="0.25" width="35.5" height="35.5" rx="17.75" stroke="url(#paint1_linear_1105_51074)" stroke-width="0.5" shape-rendering="crispEdges"/>
<g id="Plot">
<path id="Vector 10" d="M11 25H12.5M25 25H23.5M23.5 25H12.5M23.5 25C23.5 25 22.4569 20.1255 21.3469 16.607M12.5 25C12.5 25 13.5431 20.1255 14.6531 16.607M21.3469 16.607C20.4236 13.6804 19.4541 11 19 11C18 11 18 11 18 11C18 11 18 11 17 11C16.5459 11 15.5764 13.6804 14.6531 16.607M21.3469 16.607H14.6531" stroke="#D2D6D9" stroke-width="1.25" stroke-linecap="round"/>
</g>
</g>
<defs>
<filter id="filter0_di_1105_51074" x="0" y="0" width="36" height="37" filterUnits="userSpaceOnUse" color-interpolation-filters="sRGB">
<feFlood flood-opacity="0" result="BackgroundImageFix"/>
<feColorMatrix in="SourceAlpha" type="matrix" values="0 0 0 0 0 0 0 0 0 0 0 0 0 0 0 0 0 0 127 0" result="hardAlpha"/>
<feOffset dy="1"/>
<feComposite in2="hardAlpha" operator="out"/>
<feColorMatrix type="matrix" values="0 0 0 0 0.0196078 0 0 0 0 0.0470588 0 0 0 0 0.0627451 0 0 0 1 0"/>
<feBlend mode="normal" in2="BackgroundImageFix" result="effect1_dropShadow_1105_51074"/>
<feBlend mode="normal" in="SourceGraphic" in2="effect1_dropShadow_1105_51074" result="shape"/>
<feColorMatrix in="SourceAlpha" type="matrix" values="0 0 0 0 0 0 0 0 0 0 0 0 0 0 0 0 0 0 127 0" result="hardAlpha"/>
<feOffset dy="1"/>
<feGaussianBlur stdDeviation="0.5"/>
<feComposite in2="hardAlpha" operator="arithmetic" k2="-1" k3="1"/>
<feColorMatrix type="matrix" values="0 0 0 0 1 0 0 0 0 1 0 0 0 0 1 0 0 0 0.04 0"/>
<feBlend mode="normal" in2="shape" result="effect2_innerShadow_1105_51074"/>
</filter>
<linearGradient id="paint0_linear_1105_51074" x1="18" y1="0" x2="18" y2="36" gradientUnits="userSpaceOnUse">
<stop stop-color="#161F27"/>
<stop offset="1" stop-color="#0F1C24"/>
</linearGradient>
<linearGradient id="paint1_linear_1105_51074" x1="18" y1="0" x2="18" y2="36" gradientUnits="userSpaceOnUse">
<stop stop-color="#202B32"/>
<stop offset="1" stop-color="#08151C"/>
</linearGradient>
</defs>
</svg>
