<svg width="36" height="37" viewBox="0 0 36 37" fill="none" xmlns="http://www.w3.org/2000/svg">
<g id="Equipement-ladder" filter="url(#filter0_di_1105_51077)">
<rect width="36" height="36" rx="18" fill="url(#paint0_linear_1105_51077)" shape-rendering="crispEdges"/>
<rect x="0.25" y="0.25" width="35.5" height="35.5" rx="17.75" stroke="url(#paint1_linear_1105_51077)" stroke-width="0.5" shape-rendering="crispEdges"/>
<g id="ladder">
<path id="Vector 11" d="M20 10L18.2322 11.7678M10.1005 19.8995L11.8683 18.1317M25.6569 15.6569L23.8891 17.4246M15.7574 25.5563L17.5251 23.7886M18.2322 11.7678L23.8891 17.4246M18.2322 11.7678L15.0503 14.9497M23.8891 17.4246L20.7071 20.6066M20.7071 20.6066L15.0503 14.9497M20.7071 20.6066L17.5251 23.7886M15.0503 14.9497L11.8683 18.1317M17.5251 23.7886L11.8683 18.1317" stroke="#D2D6D9" stroke-width="1.25" stroke-linecap="round"/>
</g>
</g>
<defs>
<filter id="filter0_di_1105_51077" x="0" y="0" width="36" height="37" filterUnits="userSpaceOnUse" color-interpolation-filters="sRGB">
<feFlood flood-opacity="0" result="BackgroundImageFix"/>
<feColorMatrix in="SourceAlpha" type="matrix" values="0 0 0 0 0 0 0 0 0 0 0 0 0 0 0 0 0 0 127 0" result="hardAlpha"/>
<feOffset dy="1"/>
<feComposite in2="hardAlpha" operator="out"/>
<feColorMatrix type="matrix" values="0 0 0 0 0.0196078 0 0 0 0 0.0470588 0 0 0 0 0.0627451 0 0 0 1 0"/>
<feBlend mode="normal" in2="BackgroundImageFix" result="effect1_dropShadow_1105_51077"/>
<feBlend mode="normal" in="SourceGraphic" in2="effect1_dropShadow_1105_51077" result="shape"/>
<feColorMatrix in="SourceAlpha" type="matrix" values="0 0 0 0 0 0 0 0 0 0 0 0 0 0 0 0 0 0 127 0" result="hardAlpha"/>
<feOffset dy="1"/>
<feGaussianBlur stdDeviation="0.5"/>
<feComposite in2="hardAlpha" operator="arithmetic" k2="-1" k3="1"/>
<feColorMatrix type="matrix" values="0 0 0 0 1 0 0 0 0 1 0 0 0 0 1 0 0 0 0.04 0"/>
<feBlend mode="normal" in2="shape" result="effect2_innerShadow_1105_51077"/>
</filter>
<linearGradient id="paint0_linear_1105_51077" x1="18" y1="0" x2="18" y2="36" gradientUnits="userSpaceOnUse">
<stop stop-color="#161F27"/>
<stop offset="1" stop-color="#0F1C24"/>
</linearGradient>
<linearGradient id="paint1_linear_1105_51077" x1="18" y1="0" x2="18" y2="36" gradientUnits="userSpaceOnUse">
<stop stop-color="#202B32"/>
<stop offset="1" stop-color="#08151C"/>
</linearGradient>
</defs>
</svg>
