<svg width="36" height="37" viewBox="0 0 36 37" fill="none" xmlns="http://www.w3.org/2000/svg">
<g id="Equipement-flag" filter="url(#filter0_di_1105_51091)">
<rect width="36" height="36" rx="18" fill="url(#paint0_linear_1105_51091)" shape-rendering="crispEdges"/>
<rect x="0.25" y="0.25" width="35.5" height="35.5" rx="17.75" stroke="url(#paint1_linear_1105_51091)" stroke-width="0.5" shape-rendering="crispEdges"/>
<g id="flag">
<path id="Icon" d="M11.333 20.4998C11.333 20.4998 12.1663 19.6665 14.6663 19.6665C17.1663 19.6665 18.833 21.3332 21.333 21.3332C23.833 21.3332 24.6663 20.4998 24.6663 20.4998V11.3332C24.6663 11.3332 23.833 12.1665 21.333 12.1665C18.833 12.1665 17.1663 10.4998 14.6663 10.4998C12.1663 10.4998 11.333 11.3332 11.333 11.3332M11.333 26.3332L11.333 9.6665" stroke="#D2D6D9" stroke-width="1.25" stroke-linecap="round" stroke-linejoin="round"/>
</g>
</g>
<defs>
<filter id="filter0_di_1105_51091" x="0" y="0" width="36" height="37" filterUnits="userSpaceOnUse" color-interpolation-filters="sRGB">
<feFlood flood-opacity="0" result="BackgroundImageFix"/>
<feColorMatrix in="SourceAlpha" type="matrix" values="0 0 0 0 0 0 0 0 0 0 0 0 0 0 0 0 0 0 127 0" result="hardAlpha"/>
<feOffset dy="1"/>
<feComposite in2="hardAlpha" operator="out"/>
<feColorMatrix type="matrix" values="0 0 0 0 0.0196078 0 0 0 0 0.0470588 0 0 0 0 0.0627451 0 0 0 1 0"/>
<feBlend mode="normal" in2="BackgroundImageFix" result="effect1_dropShadow_1105_51091"/>
<feBlend mode="normal" in="SourceGraphic" in2="effect1_dropShadow_1105_51091" result="shape"/>
<feColorMatrix in="SourceAlpha" type="matrix" values="0 0 0 0 0 0 0 0 0 0 0 0 0 0 0 0 0 0 127 0" result="hardAlpha"/>
<feOffset dy="1"/>
<feGaussianBlur stdDeviation="0.5"/>
<feComposite in2="hardAlpha" operator="arithmetic" k2="-1" k3="1"/>
<feColorMatrix type="matrix" values="0 0 0 0 1 0 0 0 0 1 0 0 0 0 1 0 0 0 0.04 0"/>
<feBlend mode="normal" in2="shape" result="effect2_innerShadow_1105_51091"/>
</filter>
<linearGradient id="paint0_linear_1105_51091" x1="18" y1="0" x2="18" y2="36" gradientUnits="userSpaceOnUse">
<stop stop-color="#161F27"/>
<stop offset="1" stop-color="#0F1C24"/>
</linearGradient>
<linearGradient id="paint1_linear_1105_51091" x1="18" y1="0" x2="18" y2="36" gradientUnits="userSpaceOnUse">
<stop stop-color="#202B32"/>
<stop offset="1" stop-color="#08151C"/>
</linearGradient>
</defs>
</svg>
