<svg width="36" height="37" viewBox="0 0 36 37" fill="none" xmlns="http://www.w3.org/2000/svg">
<g id="Equipement-ball" filter="url(#filter0_di_1105_51100)">
<rect width="36" height="36" rx="18" fill="url(#paint0_linear_1105_51100)" shape-rendering="crispEdges"/>
<rect x="0.25" y="0.25" width="35.5" height="35.5" rx="17.75" stroke="url(#paint1_linear_1105_51100)" stroke-width="0.5" shape-rendering="crispEdges"/>
<g id="ball">
<path id="Ellipse 11" d="M26 18L23 16.2222M26 18C26 19.6446 25.5038 21.1732 24.6528 22.4444M26 18C26 15.918 25.2047 14.0218 23.9013 12.5986M21.0199 10.5896C20.088 10.2095 19.0685 10 18 10C16.9315 10 15.912 10.2095 14.9801 10.5896M21.0199 10.5896L18 13.1111M21.0199 10.5896C22.1255 11.0406 23.1076 11.7319 23.9013 12.5986M18 13.1111V14.8889M18 13.1111L14.9801 10.5896M18 14.8889L21.5556 17.5556M18 14.8889L14.4444 17.5556M21.5556 17.5556L20.2222 21.1111M21.5556 17.5556L23 16.2222M20.2222 21.1111H15.7778M20.2222 21.1111L21.1111 22.4444M15.7778 21.1111L14.4444 17.5556M15.7778 21.1111L14.8889 22.4444M14.4444 17.5556L13 16.2222M13 16.2222L10.0488 18.8889M13 16.2222L12.0987 12.5986M10.0488 18.8889C10.0166 18.597 10 18.3005 10 18C10 15.918 10.7953 14.0218 12.0987 12.5986M10.0488 18.8889C10.4339 22.3727 13.0562 25.1823 16.4471 25.8494M23 16.2222L23.9013 12.5986M21.1111 22.4444H24.6528M21.1111 22.4444L19.5529 25.8494M24.6528 22.4444C23.4926 24.1777 21.673 25.4323 19.5529 25.8494M19.5529 25.8494C19.0505 25.9482 18.5313 26 18 26C17.4687 26 16.9495 25.9482 16.4471 25.8494M14.8889 22.4444L16.4471 25.8494M14.8889 22.4444H11.3333M12.0987 12.5986C12.8924 11.7319 13.8745 11.0406 14.9801 10.5896" stroke="#D2D6D9" stroke-width="1.25"/>
</g>
</g>
<defs>
<filter id="filter0_di_1105_51100" x="0" y="0" width="36" height="37" filterUnits="userSpaceOnUse" color-interpolation-filters="sRGB">
<feFlood flood-opacity="0" result="BackgroundImageFix"/>
<feColorMatrix in="SourceAlpha" type="matrix" values="0 0 0 0 0 0 0 0 0 0 0 0 0 0 0 0 0 0 127 0" result="hardAlpha"/>
<feOffset dy="1"/>
<feComposite in2="hardAlpha" operator="out"/>
<feColorMatrix type="matrix" values="0 0 0 0 0.0196078 0 0 0 0 0.0470588 0 0 0 0 0.0627451 0 0 0 1 0"/>
<feBlend mode="normal" in2="BackgroundImageFix" result="effect1_dropShadow_1105_51100"/>
<feBlend mode="normal" in="SourceGraphic" in2="effect1_dropShadow_1105_51100" result="shape"/>
<feColorMatrix in="SourceAlpha" type="matrix" values="0 0 0 0 0 0 0 0 0 0 0 0 0 0 0 0 0 0 127 0" result="hardAlpha"/>
<feOffset dy="1"/>
<feGaussianBlur stdDeviation="0.5"/>
<feComposite in2="hardAlpha" operator="arithmetic" k2="-1" k3="1"/>
<feColorMatrix type="matrix" values="0 0 0 0 1 0 0 0 0 1 0 0 0 0 1 0 0 0 0.04 0"/>
<feBlend mode="normal" in2="shape" result="effect2_innerShadow_1105_51100"/>
</filter>
<linearGradient id="paint0_linear_1105_51100" x1="18" y1="0" x2="18" y2="36" gradientUnits="userSpaceOnUse">
<stop stop-color="#161F27"/>
<stop offset="1" stop-color="#0F1C24"/>
</linearGradient>
<linearGradient id="paint1_linear_1105_51100" x1="18" y1="0" x2="18" y2="36" gradientUnits="userSpaceOnUse">
<stop stop-color="#202B32"/>
<stop offset="1" stop-color="#08151C"/>
</linearGradient>
</defs>
</svg>
