<svg width="12" height="12" viewBox="0 0 12 12" fill="none" xmlns="http://www.w3.org/2000/svg">
<g clip-path="url(#clip0_1105_5539)">
<path d="M7.0452 3.36111H10.0221C10.2582 3.36111 10.3762 3.36111 10.4452 3.41074C10.5054 3.45405 10.5447 3.52071 10.5533 3.59439C10.5631 3.67883 10.5058 3.78202 10.3912 3.98838L9.68073 5.26717C9.63915 5.34201 9.61836 5.37943 9.61021 5.41906C9.603 5.45413 9.603 5.49031 9.61021 5.52538C9.61836 5.56501 9.63915 5.60243 9.68073 5.67727L10.3912 6.95606C10.5058 7.16242 10.5631 7.26561 10.5533 7.35006C10.5447 7.42374 10.5054 7.49039 10.4452 7.5337C10.3762 7.58333 10.2582 7.58333 10.0221 7.58333H6.30632C6.01073 7.58333 5.86294 7.58333 5.75004 7.52581C5.65073 7.47521 5.57 7.39447 5.5194 7.29516C5.46187 7.18226 5.46187 7.03447 5.46187 6.73889V5.47222M3.61465 10.75L1.50354 2.30556M2.29523 5.47222H6.20076C6.49634 5.47222 6.64413 5.47222 6.75703 5.4147C6.85634 5.3641 6.93708 5.28336 6.98768 5.18405C7.0452 5.07115 7.0452 4.92336 7.0452 4.62778V2.09444C7.0452 1.79886 7.0452 1.65107 6.98768 1.53817C6.93708 1.43886 6.85634 1.35812 6.75703 1.30752C6.64413 1.25 6.49634 1.25 6.20076 1.25H2.32118C1.95252 1.25 1.76819 1.25 1.64211 1.32639C1.53161 1.39334 1.44951 1.4985 1.41136 1.62194C1.36783 1.76278 1.41254 1.9416 1.50196 2.29926L2.29523 5.47222Z" stroke="#00C182" stroke-width="1.25" stroke-linecap="round" stroke-linejoin="round"/>
</g>
<defs>
<clipPath id="clip0_1105_5539">
<rect width="12" height="12" fill="white"/>
</clipPath>
</defs>
</svg>
