<svg width="19" height="19" viewBox="0 0 19 19" fill="none" xmlns="http://www.w3.org/2000/svg">
<path d="M5.675 9.08333V11.1667M5.675 9.08333V4.08333C5.675 3.39298 6.24584 2.83333 6.95 2.83333C7.65416 2.83333 8.225 3.39298 8.225 4.08333M5.675 9.08333C5.675 8.39298 5.10416 7.83333 4.4 7.83333C3.69584 7.83333 3.125 8.39298 3.125 9.08333V10.75C3.125 14.2018 5.97918 17 9.5 17C13.0208 17 15.875 14.2018 15.875 10.75V6.58333C15.875 5.89298 15.3042 5.33333 14.6 5.33333C13.8958 5.33333 13.325 5.89298 13.325 6.58333M8.225 4.08333V8.66667M8.225 4.08333V3.25C8.225 2.55964 8.79584 2 9.5 2C10.2042 2 10.775 2.55964 10.775 3.25V4.08333M10.775 4.08333V8.66667M10.775 4.08333C10.775 3.39298 11.3458 2.83333 12.05 2.83333C12.7542 2.83333 13.325 3.39298 13.325 4.08333V6.58333M13.325 6.58333V8.66667" stroke="#3CC9E1" stroke-width="1.875" stroke-linecap="round" stroke-linejoin="round"/>
</svg>
