<svg width="18" height="18" viewBox="0 0 18 18" fill="none" xmlns="http://www.w3.org/2000/svg">
<path d="M5.175 8.58333V10.6667M5.175 8.58333V3.58333C5.175 2.89298 5.74584 2.33333 6.45 2.33333C7.15416 2.33333 7.725 2.89298 7.725 3.58333M5.175 8.58333C5.175 7.89298 4.60416 7.33333 3.9 7.33333C3.19584 7.33333 2.625 7.89298 2.625 8.58333V10.25C2.625 13.7018 5.47918 16.5 9 16.5C12.5208 16.5 15.375 13.7018 15.375 10.25V6.08333C15.375 5.39298 14.8042 4.83333 14.1 4.83333C13.3958 4.83333 12.825 5.39298 12.825 6.08333M7.725 3.58333V8.16667M7.725 3.58333V2.75C7.725 2.05964 8.29584 1.5 9 1.5C9.70416 1.5 10.275 2.05964 10.275 2.75V3.58333M10.275 3.58333V8.16667M10.275 3.58333C10.275 2.89298 10.8458 2.33333 11.55 2.33333C12.2542 2.33333 12.825 2.89298 12.825 3.58333V6.08333M12.825 6.08333V8.16667" stroke="#D2D6D9" stroke-width="1.5" stroke-linecap="round" stroke-linejoin="round"/>
</svg>
