<svg width="42" height="57" viewBox="0 0 42 57" fill="none" xmlns="http://www.w3.org/2000/svg">
<g id="Vector" filter="url(#filter0_d_1571_152)">
<path fill-rule="evenodd" clip-rule="evenodd" d="M19.7698 4.58579C20.5508 3.80474 21.8171 3.80474 22.5982 4.58579L35.3261 17.3137C36.1072 18.0948 36.1072 19.3611 35.3261 20.1421C34.5451 20.9232 33.2787 20.9232 32.4977 20.1421L23.184 10.8284V11C23.184 12.1046 22.2885 13 21.184 13C20.0794 13 19.184 12.1046 19.184 11V10.8284L9.87027 20.1421C9.08922 20.9232 7.82289 20.9232 7.04184 20.1421C6.26079 19.3611 6.26079 18.0948 7.04184 17.3137L19.7698 4.58579ZM21.184 19C22.2885 19 23.184 19.8954 23.184 21V31C23.184 32.1046 22.2885 33 21.184 33C20.0794 33 19.184 32.1046 19.184 31V21C19.184 19.8954 20.0794 19 21.184 19ZM19.184 51V41C19.184 39.8954 20.0794 39 21.184 39C22.2885 39 23.184 39.8954 23.184 41V51C23.184 52.1046 22.2885 53 21.184 53C20.0794 53 19.184 52.1046 19.184 51ZM21.184 59C22.2885 59 23.184 59.8954 23.184 61V71C23.184 72.1046 22.2885 73 21.184 73C20.0794 73 19.184 72.1046 19.184 71V61C19.184 59.8954 20.0794 59 21.184 59ZM21.184 79C22.2885 79 23.184 79.8954 23.184 81V91C23.184 92.1046 22.2885 93 21.184 93C20.0794 93 19.184 92.1046 19.184 91V81C19.184 79.8954 20.0794 79 21.184 79ZM21.184 99C22.2885 99 23.184 99.8954 23.184 101V106H19.184V101C19.184 99.8954 20.0794 99 21.184 99Z" fill="#77858D"/>
<path d="M23.184 107H24.184V106V101C24.184 99.3431 22.8408 98 21.184 98C19.5271 98 18.184 99.3431 18.184 101V106V107H19.184H23.184ZM23.3053 3.87868C22.1337 2.70711 20.2342 2.70711 19.0627 3.87868L6.33473 16.6066C5.16316 17.7782 5.16316 19.6777 6.33473 20.8492C7.50631 22.0208 9.4058 22.0208 10.5774 20.8492L18.7179 12.7088C19.2596 13.4891 20.1621 14 21.184 14C22.2059 14 23.1084 13.4891 23.6501 12.7088L31.7906 20.8492C32.9622 22.0208 34.8616 22.0208 36.0332 20.8492C37.2048 19.6777 37.2048 17.7782 36.0332 16.6066L23.3053 3.87868ZM24.184 21C24.184 19.3431 22.8408 18 21.184 18C19.5271 18 18.184 19.3431 18.184 21V31C18.184 32.6569 19.5271 34 21.184 34C22.8408 34 24.184 32.6569 24.184 31V21ZM18.184 41V51C18.184 52.6569 19.5271 54 21.184 54C22.8408 54 24.184 52.6569 24.184 51V41C24.184 39.3431 22.8408 38 21.184 38C19.5271 38 18.184 39.3431 18.184 41ZM24.184 61C24.184 59.3431 22.8408 58 21.184 58C19.5271 58 18.184 59.3431 18.184 61V71C18.184 72.6569 19.5271 74 21.184 74C22.8408 74 24.184 72.6569 24.184 71V61ZM24.184 81C24.184 79.3431 22.8408 78 21.184 78C19.5271 78 18.184 79.3431 18.184 81V91C18.184 92.6569 19.5271 94 21.184 94C22.8408 94 24.184 92.6569 24.184 91V81Z" stroke="#202B32" stroke-width="2" stroke-linecap="round"/>
</g>
<defs>
<filter id="filter0_d_1571_152" x="0.456055" y="0" width="41.4561" height="114" filterUnits="userSpaceOnUse" color-interpolation-filters="sRGB">
<feFlood flood-opacity="0" result="BackgroundImageFix"/>
<feColorMatrix in="SourceAlpha" type="matrix" values="0 0 0 0 0 0 0 0 0 0 0 0 0 0 0 0 0 0 127 0" result="hardAlpha"/>
<feOffset dy="2"/>
<feGaussianBlur stdDeviation="2"/>
<feComposite in2="hardAlpha" operator="out"/>
<feColorMatrix type="matrix" values="0 0 0 0 0.0196078 0 0 0 0 0.0470588 0 0 0 0 0.0627451 0 0 0 0.4 0"/>
<feBlend mode="normal" in2="BackgroundImageFix" result="effect1_dropShadow_1571_152"/>
<feBlend mode="normal" in="SourceGraphic" in2="effect1_dropShadow_1571_152" result="shape"/>
</filter>
</defs>
</svg>
