<svg width="43" height="57" viewBox="0 0 43 57" fill="none" xmlns="http://www.w3.org/2000/svg">
<g id="Vector" filter="url(#filter0_d_1571_153)">
<path fill-rule="evenodd" clip-rule="evenodd" d="M20.2258 4.58579C21.0069 3.80474 22.2732 3.80474 23.0542 4.58579L35.7822 17.3137C36.5632 18.0948 36.5632 19.3611 35.7822 20.1421C35.0011 20.9232 33.7348 20.9232 32.9537 20.1421L23.64 10.8284V11.125C23.64 11.9012 23.827 12.864 24.1802 14.0376C24.5141 15.1471 24.9573 16.3239 25.4371 17.5975C25.4619 17.6634 25.4868 17.7295 25.5118 17.7958L25.5214 17.8214C26.4841 20.3785 27.64 23.4486 27.64 26.25C27.64 29.8874 24.7422 31.7181 22.9392 32.8571C22.8617 32.9061 22.7862 32.9538 22.713 33.0003C20.4876 34.415 19.64 35.1294 19.64 36.375C19.64 37.6206 20.4876 38.335 22.713 39.7497C22.7862 39.7962 22.8617 39.8439 22.9392 39.8929C24.7422 41.0319 27.64 42.8626 27.64 46.5C27.64 50.1374 24.7422 51.9681 22.9392 53.1071C22.8617 53.1561 22.7862 53.2038 22.713 53.2503C20.4876 54.665 19.64 55.3794 19.64 56.625C19.64 57.9388 20.6027 58.8486 22.7703 60.3335C22.858 60.3936 22.9481 60.455 23.0401 60.5177C23.9221 61.1188 24.9796 61.8396 25.8087 62.6739C26.7749 63.6463 27.64 64.9728 27.64 66.75C27.64 68.0832 27.3332 69.5624 26.9449 70.9901C26.5543 72.4265 26.0385 73.9575 25.5462 75.4188L25.5354 75.451C25.0309 76.9484 24.5514 78.3739 24.1949 79.6846C23.8332 81.0147 23.64 82.0825 23.64 82.875V86.9991C23.64 88.1037 22.7446 89 21.64 89C20.5355 89 19.64 88.1046 19.64 87V82.875C19.64 81.5418 19.9469 80.0626 20.3351 78.6349C20.7258 77.1985 21.2416 75.6675 21.7338 74.2062L21.7447 74.174C22.2492 72.6766 22.7287 71.2511 23.0851 69.9404C23.4469 68.6103 23.64 67.5425 23.64 66.75C23.64 66.4022 23.5051 66.0305 22.9714 65.4934C22.4259 64.9445 21.6875 64.4393 20.7204 63.7777C20.6513 63.7304 20.5811 63.6824 20.5097 63.6335L20.4336 63.5814C18.5945 62.3222 15.64 60.2995 15.64 56.625C15.64 52.9876 18.5379 51.1569 20.3409 50.0179C20.4184 49.9689 20.4939 49.9212 20.5671 49.8747C22.7924 48.46 23.64 47.7456 23.64 46.5C23.64 45.2544 22.7924 44.54 20.5671 43.1253C20.4939 43.0788 20.4184 43.0311 20.3409 42.9821C18.5379 41.8431 15.64 40.0124 15.64 36.375C15.64 32.7376 18.5379 30.9069 20.3409 29.7679C20.4184 29.7189 20.4939 29.6712 20.5671 29.6247C22.7924 28.21 23.64 27.4956 23.64 26.25C23.64 24.3108 22.8037 21.9553 21.7683 19.2052C21.7384 19.126 21.7085 19.0464 21.6784 18.9666C21.213 17.7315 20.7245 16.4351 20.3499 15.1902C19.953 13.8715 19.64 12.4745 19.64 11.125V10.8284L10.3263 20.1421C9.54527 20.9232 8.27894 20.9232 7.4979 20.1421C6.71685 19.3611 6.71685 18.0948 7.4979 17.3137L20.2258 4.58579Z" fill="#77858D"/>
<path d="M11.0334 20.8492L18.8129 13.0698C18.9522 13.9009 19.1621 14.7135 19.3923 15.4784C19.7767 16.7559 20.2752 18.0787 20.7364 19.3026L20.7426 19.3192L20.7426 19.3192L20.8324 19.5576C21.8865 22.3573 22.64 24.5295 22.64 26.25C22.64 26.5789 22.5543 26.8292 22.2162 27.1819C21.8224 27.5927 21.1564 28.0651 20.0306 28.7808C19.9595 28.8259 19.886 28.8724 19.809 28.921L19.8068 28.9224C19.781 28.9387 19.7549 28.9552 19.7284 28.9719C17.9669 30.0838 14.64 32.1837 14.64 36.375C14.64 40.5663 17.9669 42.6662 19.7284 43.7781C19.7549 43.7948 19.781 43.8113 19.8068 43.8276L20.3409 42.9821L19.8068 43.8276C19.8845 43.8767 19.9588 43.9236 20.0306 43.9692C21.1564 44.6849 21.8224 45.1573 22.2162 45.5681C22.5543 45.9208 22.64 46.1711 22.64 46.5C22.64 46.8289 22.5543 47.0792 22.2162 47.4319C21.8224 47.8427 21.1564 48.3151 20.0306 49.0308C19.9588 49.0764 19.8845 49.1233 19.8068 49.1724L20.3409 50.0179L19.8068 49.1724C19.781 49.1887 19.7549 49.2052 19.7284 49.2219C17.9669 50.3338 14.64 52.4337 14.64 56.625C14.64 60.8298 17.9922 63.1229 19.7862 64.3501C19.814 64.3691 19.8415 64.3879 19.8686 64.4065C19.8686 64.4065 19.8686 64.4065 19.8687 64.4065L19.9446 64.4585L19.9447 64.4586L20.1558 64.603C21.1499 65.2831 21.7978 65.7311 22.262 66.1983C22.4814 66.4191 22.5718 66.5596 22.6091 66.6353C22.6385 66.6947 22.64 66.7223 22.64 66.75C22.64 67.4071 22.4754 68.3718 22.1202 69.678C21.773 70.9546 21.3038 72.3506 20.797 73.8547L21.7447 74.174L20.797 73.8548L20.7862 73.887L20.781 73.9023C20.2922 75.3531 19.7687 76.9073 19.3702 78.3725C18.9752 79.8249 18.64 81.4068 18.64 82.875V87C18.64 88.6568 19.9832 90 21.64 90C23.2975 90 24.64 88.6553 24.64 86.9991V82.875C24.64 82.2179 24.8047 81.2532 25.1599 79.947C25.5071 78.6704 25.9763 77.2744 26.483 75.7703L25.5354 75.451L26.483 75.7702L26.4939 75.738L26.4991 75.7226C26.9878 74.2718 27.5114 72.7177 27.9099 71.2525C28.3049 69.8001 28.64 68.2182 28.64 66.75C28.64 64.6142 27.5912 63.049 26.518 61.969C25.6213 61.0667 24.4987 60.3016 23.636 59.7136L23.6033 59.6914C23.5111 59.6285 23.422 59.5678 23.3355 59.5086L22.788 60.3077L23.3355 59.5085C22.2516 58.766 21.5623 58.2276 21.1407 57.7518C20.7537 57.3151 20.64 56.9862 20.64 56.625C20.64 56.2961 20.7257 56.0458 21.0638 55.6931C21.4577 55.2823 22.1237 54.8099 23.2495 54.0942C23.3208 54.0489 23.3947 54.0022 23.472 53.9534L23.4733 53.9526L22.9392 53.1071L23.4733 53.9526C23.499 53.9363 23.5252 53.9198 23.5516 53.9031C25.3132 52.7912 28.64 50.6913 28.64 46.5C28.64 42.3087 25.3132 40.2088 23.5516 39.0969C23.5252 39.0802 23.499 39.0637 23.4733 39.0474L22.9392 39.8929L23.4733 39.0474L23.4714 39.0462C23.3943 38.9976 23.3207 38.951 23.2495 38.9058C22.1237 38.1901 21.4577 37.7177 21.0638 37.3069C20.7257 36.9542 20.64 36.7039 20.64 36.375C20.64 36.0461 20.7257 35.7958 21.0638 35.4431C21.4577 35.0323 22.1237 34.5599 23.2495 33.8442L22.713 33.0003L23.2495 33.8442C23.3212 33.7986 23.3955 33.7517 23.4733 33.7026C23.499 33.6863 23.5252 33.6698 23.5516 33.6531C25.3132 32.5412 28.64 30.4413 28.64 26.25C28.64 23.2657 27.4312 20.0554 26.4893 17.5542L26.4573 17.4691L26.4573 17.4691L26.4476 17.4435L26.4476 17.4435L26.3729 17.245C25.8902 15.9635 25.46 14.8202 25.1378 13.7494C25.1365 13.7451 25.1352 13.7408 25.1339 13.7365L32.2466 20.8492C33.4182 22.0208 35.3177 22.0208 36.4893 20.8492C37.6608 19.6777 37.6608 17.7782 36.4893 16.6066L23.7614 3.87868C22.5898 2.70711 20.6903 2.70711 19.5187 3.87868L6.79079 16.6066C5.61922 17.7782 5.61922 19.6777 6.79079 20.8492C7.96236 22.0208 9.86186 22.0208 11.0334 20.8492Z" stroke="#202B32" stroke-width="2"/>
</g>
<defs>
<filter id="filter0_d_1571_153" x="0.912109" y="0" width="41.4561" height="97" filterUnits="userSpaceOnUse" color-interpolation-filters="sRGB">
<feFlood flood-opacity="0" result="BackgroundImageFix"/>
<feColorMatrix in="SourceAlpha" type="matrix" values="0 0 0 0 0 0 0 0 0 0 0 0 0 0 0 0 0 0 127 0" result="hardAlpha"/>
<feOffset dy="2"/>
<feGaussianBlur stdDeviation="2"/>
<feComposite in2="hardAlpha" operator="out"/>
<feColorMatrix type="matrix" values="0 0 0 0 0.0196078 0 0 0 0 0.0470588 0 0 0 0 0.0627451 0 0 0 0.4 0"/>
<feBlend mode="normal" in2="BackgroundImageFix" result="effect1_dropShadow_1571_153"/>
<feBlend mode="normal" in="SourceGraphic" in2="effect1_dropShadow_1571_153" result="shape"/>
</filter>
</defs>
</svg>
