<?xml version="1.0" encoding="utf-8"?>
<!-- Generator: Adobe Illustrator 27.5.0, SVG Export Plug-In . SVG Version: 6.00 Build 0)  -->
<svg version="1.1" xmlns="http://www.w3.org/2000/svg" xmlns:xlink="http://www.w3.org/1999/xlink" x="0px" y="0px"
	 viewBox="0 0 750 500" style="enable-background:new 0 0 750 500;" xml:space="preserve">
<g xmlns="http://www.w3.org/2000/svg" id="g7803" transform="translate(-245.85172,72.169713)">
		<path id="path7298" style="fill:#571810;" d="M829.234,155.557c-11.378,42.174,7.269,76.57,7.269,76.57l6.176,17.501l1.069,16.299    l6.517,48.058c0,0-10.158,13.661-26.556,13.902l-4.784,5.54l15.541,0.095c0,0,11.679-5.845,26.529-5.185    c0,0,0.902-8.705-6.421-14.892l1.078-42.37l4.67-10.805c1.904-5.843-7.77-20.25-7.77-20.25l7.219-57.477L829.234,155.557z"/>
		<g>
			<defs>
				<path id="path7298_1_" d="M829.234,155.557c-11.378,42.174,7.269,76.57,7.269,76.57l6.176,17.501l1.069,16.299l6.517,48.058      c0,0-10.158,13.661-26.556,13.902l-4.784,5.54l15.541,0.095c0,0,11.679-5.845,26.529-5.185c0,0,0.902-8.705-6.421-14.892      l1.078-42.37l4.67-10.805c1.904-5.843-7.77-20.25-7.77-20.25l7.219-57.477L829.234,155.557z"/>
			</defs>
			<clipPath id="path7298_00000103961962839866940550000010869750381067266726_">
				<use xmlns:xlink="http://www.w3.org/1999/xlink" xlink:href="#path7298_1_" style="overflow:visible;"/>
			</clipPath>
			<g style="clip-path:url(#path7298_00000103961962839866940550000010869750381067266726_);">
				<path id="path7314" style="fill:#008E64;" d="M821.203,219.215l36.853,5.713l32.184-75.216l-77.108-9.158L821.203,219.215z"/>
				<g>
					<path id="path7478" style="fill:#006B4C;" d="M808.737,174.586c31.429,3.214,41.984,19.804,47.698,50.518       c20.714-40.357,42.48-84.447,42.48-84.447l-80-22.5L808.737,174.586z"/>
				</g>
				<g>
					<path id="path7631" style="fill:#470025;" d="M853.835,313.986l4.308-0.541l12.404,2.087l1.389,15.784l-42.931,14.9       l-14.647-14.773l16.036-17.93L853.835,313.986z"/>
				</g>
				<g>
					<path id="path7673" style="fill:#C3C3C3;" d="M817.959,330.937l18.814,0.126c0,0,19.824-7.45,30.431-5.43       c10.607,2.02-3.788,11.49-3.788,11.49l-46.341,4.041L817.959,330.937z"/>
				</g>
			</g>
		</g>
		<path id="path7300" style="fill:#6D351B;" d="M851.376,185.491c0,0,4.657,24.477,6.767,34.608    c0.567,2.721,10.87,19.665,10.539,38.959c-0.101,5.902,4.858,25.104,5.123,26.087c2.24,8.301,8.208,30.794,9.438,35.433    c0.158,0.596,0.185,1.214,0.07,1.82c-0.675,3.565-4.023,15.898-18.527,20.238c-1.423,0.426-2.539,1.531-2.91,2.969l0,0    c-0.652,2.526,1.154,5.022,3.757,5.194l7.098,0.469c0.287,0.019,0.582,0.01,0.867-0.029c14.782-2.068,11.288-11.985,18.381-16.154    c1.404-0.825,2.126-2.458,1.923-4.074c-0.591-4.708-2.993-7.572-4.522-8.954c-0.827-0.747-1.349-1.772-1.416-2.884l-1.854-30.979    c-0.266-4.448,0.52-8.896,2.293-12.984l0.491-1.132c1.228-2.83,1.38-6.011,0.426-8.945l-8.439-25.969    c-0.147-0.452-0.215-0.926-0.202-1.401c0,0,3.027-57.164,2.99-69.61c-0.027-9.148-1.345-14.682-1.345-14.682    c-0.172-0.836-3.91-0.907-6.576-0.069l-20.703,6.51c-0.184,0.058-0.364,0.128-0.538,0.211l-8.042,3.821    c-2.032,0.965-2.929,3.37-2.027,5.43l6.657,15.204C851.224,184.871,851.318,185.177,851.376,185.491z"/>
		<g>
			<defs>
				<path id="path7300_1_" d="M851.376,185.491c0,0,4.657,24.477,6.767,34.608c0.567,2.721,10.87,19.665,10.539,38.959      c-0.101,5.902,4.858,25.104,5.123,26.087c2.24,8.301,8.208,30.794,9.438,35.433c0.158,0.596,0.185,1.214,0.07,1.82      c-0.675,3.565-4.023,15.898-18.527,20.238c-1.423,0.426-2.539,1.531-2.91,2.969l0,0c-0.652,2.526,1.154,5.022,3.757,5.194      l7.098,0.469c0.287,0.019,0.582,0.01,0.867-0.029c14.782-2.068,11.288-11.985,18.381-16.154      c1.404-0.825,2.126-2.458,1.923-4.074c-0.591-4.708-2.993-7.572-4.522-8.954c-0.827-0.747-1.349-1.772-1.416-2.884      l-1.854-30.979c-0.266-4.448,0.52-8.896,2.293-12.984l0.491-1.132c1.228-2.83,1.38-6.011,0.426-8.945l-8.439-25.969      c-0.147-0.452-0.215-0.926-0.202-1.401c0,0,3.027-57.164,2.99-69.61c-0.027-9.148-1.345-14.682-1.345-14.682      c-0.172-0.836-3.91-0.907-6.576-0.069l-20.703,6.51c-0.184,0.058-0.364,0.128-0.538,0.211l-8.042,3.821      c-2.032,0.965-2.929,3.37-2.027,5.43l6.657,15.204C851.224,184.871,851.318,185.177,851.376,185.491z"/>
			</defs>
			<clipPath id="path7300_00000106865546706854355890000017864332143371940510_">
				<use xmlns:xlink="http://www.w3.org/1999/xlink" xlink:href="#path7300_1_" style="overflow:visible;"/>
			</clipPath>
			<path id="path7633" style="clip-path:url(#path7300_00000106865546706854355890000017864332143371940510_);fill:#470025;" d="     M883.723,320.097l4.61-0.372l9.835,0.923l1.768,17.425l-22.981,19.067l-26.769-7.45l10.228-13.89l14.521-5.808l3.03-8.839     L883.723,320.097z"/>
			<path id="path7316" style="clip-path:url(#path7300_00000106865546706854355890000017864332143371940510_);fill:#59C98C;" d="     M853.856,226.565c0,0,10.217-12.939,29.163-6.232c18.946,6.707,10.974-73.406,10.974-73.406l-63.465,6.579l-7.332,56.07     L853.856,226.565z"/>
			<path id="path7526" style="clip-path:url(#path7300_00000106865546706854355890000017864332143371940510_);fill:#008E64;" d="     M872.633,144.36c0,0,8.081,31.315,2.02,46.214c-6.061,14.9-2.525,27.779-2.525,27.779l19.698,2.525l4.293-80.812l-14.142-9.091     L872.633,144.36z"/>
			<path id="path7675" style="clip-path:url(#path7300_00000106865546706854355890000017864332143371940510_);fill:#C3C3C3;" d="     M856.972,348.55c0,0,15.501,2.909,21.806-1.299c6.305-4.208,9.894-13.174,9.894-13.174l8.496-3.592l-0.064,10.633l-18.82,17.934     l-23.051-4.187L856.972,348.55z"/>
		</g>
		<path id="path7308" style="fill:#6D351B;" d="M805.661,78.486c10.206-11.776-9.733-19.132,6.753-47.394l-5.922-2.199    c0,0-29.994,45.008-9.975,61.887L805.661,78.486z"/>
		<path id="path7306" style="fill:#6D351B;" d="M863.971,81.115c-20.158-41.599-38.801-11.139-38.801-11.139    c-12.953-9.813-25.514,6.28-25.514,6.28l-3.14,14.523L863.971,81.115z"/>
		<path id="path7586" style="fill:none;" d="M805.661,78.486c0,0,9.419,8.878,19.268-0.34"/>
		<path id="path7296" style="fill:#008E64;" d="M833.984,142.388l-4.75,13.169l10.716,11.218c0,0-2.578,16.474,11.339,18.243    c3.481-25.02,31.037-31.549,31.037-31.549c-1.655-8.003-10.349-14.912-10.349-14.912L833.984,142.388z"/>
		<path id="path7294" style="fill:#59C98C;" d="M869.934,55.392l-27.867,8.735c0,0-17.484,9.691-11.091,31.297    c7.173,10.037,4.117,5.729,3.008,46.964c6.603,18.402,37.993-3.831,37.993-3.831c2.029-31.653,19.301-23.518,26.938-52.329    l-0.232-24.808L869.934,55.392z"/>
		<path id="path7292" style="fill:#6D351B;" d="M854.864,41.945l0.711,21.095c0,0,4.018,8.619,20.387-5.33l3.246-20.403l-15.07-9.97    L854.864,41.945z"/>
		<g>
			<defs>
				<path id="SVGID_00000041276460845672476990000003169585285443143307_" d="M869.934,55.392l-27.867,8.735      c0,0-17.484,9.691-11.091,31.297c7.173,10.037,4.117,5.729,3.008,46.964c6.603,18.402,37.993-3.831,37.993-3.831      c2.029-31.653,19.301-23.518,26.938-52.329l-0.232-24.808L869.934,55.392z"/>
			</defs>
			<clipPath id="SVGID_00000076584177561030528440000007033620202300467880_">
				<use xmlns:xlink="http://www.w3.org/1999/xlink" xlink:href="#SVGID_00000041276460845672476990000003169585285443143307_" style="overflow:visible;"/>
			</clipPath>
			<path id="path7505" style="clip-path:url(#SVGID_00000076584177561030528440000007033620202300467880_);fill:#008E64;" d="     M889.958,72.717c0,0-6.566,20.456-25.759,18.183s-30.333-2.569-33.223,4.524s-1.628,11.386-1.628,11.386     s19.193-10.859,28.537,0.505c9.344,11.364,0.253,32.83,5.303,44.952c5.051,12.122,35.355-18.688,35.355-18.688l18.435-53.791     L889.958,72.717z"/>
		</g>
		<g>
			<defs>
				<path id="SVGID_00000137104469502316481980000002143819071452225212_" d="M854.864,41.945l0.711,21.095      c0,0,4.018,8.619,20.387-5.33l3.246-20.403l-15.07-9.97L854.864,41.945z"/>
			</defs>
			<clipPath id="SVGID_00000113320971886429908640000000278957448613362605_">
				<use xmlns:xlink="http://www.w3.org/1999/xlink" xlink:href="#SVGID_00000137104469502316481980000002143819071452225212_" style="overflow:visible;"/>
			</clipPath>
			<path id="path7610" style="clip-path:url(#SVGID_00000113320971886429908640000000278957448613362605_);fill:#571810;" d="     M853.009,51.682c0,0,22.46,0.761,22.638,13.975c0.178,13.214,20.893-25.179,20.893-25.179l-10-17.857l-53.036,5.357     L853.009,51.682z"/>
		</g>
		<path id="path7290" style="fill:#6D351B;" d="M845.822,19.455c0,0,1.58,12.088-1.061,24.971c-0.501,2.444,0.92,4.874,3.293,5.645    l2.466,0.802c1.625,0.528,3.367,0.577,5.018,0.14l14.095-3.726c2.115-0.559,3.629-2.416,3.75-4.6v0    c0.151-2.712,2.22-4.929,4.915-5.266l0.91-0.114c0,0,8.578-32.227-13.911-33.386C845.105,2.88,845.822,19.455,845.822,19.455z"/>
		<path id="path7302" style="fill:#6D351B;" d="M890.048,62.205c19.823-15.037,23.887,8.4,23.887,8.4s15.253-3.376,21.533,10.755    l-3.925,15.308l-42.392-13.346C883.847,72.211,890.048,62.205,890.048,62.205z"/>
		<path id="path7584" style="fill:none;" d="M935.468,81.36c0,0-13.564,11.055-26.57-3.592"/>
		<path id="path7304" style="fill:#6D351B;" d="M946.23,95.504c11.776-25.906-6.647-29.52-12.928-67.987l-7.85-0.048    c8.635,31.402-4.115,52.322,6.091,69.2L946.23,95.504z"/>
		<path id="path7310" style="fill:#6D351B;" d="M925.452,27.468c0,0-7.661,3.576-11.323-3.117l0.998-1.916l-2.893-3.575l2.159-5.103    l6.477-3.729l11.383,10.009l1.05,7.478C933.302,27.516,930.427,31.365,925.452,27.468z"/>
		<path id="path7312" style="fill:#6D351B;" d="M806.492,28.894l12.714-11.015l2.748,1.963l2.944-0.196l1.963,7.458l-2.944,1.178    l-0.196,3.336l-5.495,1.57l-5.811-2.095C807.311,35.607,806.492,28.894,806.492,28.894L806.492,28.894z"/>
		<path id="path7553" style="fill:#C3C3C3;" d="M833.516,94.941c0,0,4.167,5.177,3.662,10.985    c-0.505,5.808,0.379,26.011,0.379,26.011s9.344,3.788,21.718-0.126c0,0,0.253-16.289,3.409-27.274    c1.768-5.556-0.884-10.859-0.884-10.859S841.218,87.238,833.516,94.941L833.516,94.941z"/>
		<g>
			<defs>
				<path id="SVGID_00000176763870866464825300000010861853055251614604_" d="M833.516,94.941c0,0,4.167,5.177,3.662,10.985      c-0.505,5.808,0.379,26.011,0.379,26.011s9.344,3.788,21.718-0.126c0,0,0.253-16.289,3.409-27.274      c1.768-5.556-0.884-10.859-0.884-10.859S841.218,87.238,833.516,94.941L833.516,94.941z"/>
			</defs>
			<clipPath id="SVGID_00000183239576142168718520000001255037799843461772_">
				<use xmlns:xlink="http://www.w3.org/1999/xlink" xlink:href="#SVGID_00000176763870866464825300000010861853055251614604_" style="overflow:visible;"/>
			</clipPath>
			<path id="path7555" style="clip-path:url(#SVGID_00000183239576142168718520000001255037799843461772_);fill:#989898;" d="     M835.031,100.623c0,0,23.865-1.136,29.926,11.364c6.061,12.501,2.904-25.38,2.904-25.38l-42.553,0.505L835.031,100.623z"/>
		</g>
		<path id="path7578" style="fill:none;" d="M846.094,239.764l-6.518,0.536l3.104,9.329l4.039-5.4"/>
		<path id="path7582" style="fill:#571810;" d="M876.897,25.479l-2.589,7.411c0,0,7.946,1.696,9.018-5.179    c0.297-1.907,0.34-3.429,0.247-4.633c-0.169-2.186-2.566-3.437-4.457-2.327l-1.058,0.621L876.897,25.479z"/>
		<path id="path7588" style="fill:none;" d="M925.452,27.468c0,0-5.698-0.382-3.734-5.025l2.589-5.893"/>
		<path id="path7590" style="fill:none;" d="M923.147,18.872l-2.054-4.286"/>
		<path id="path7592" style="fill:none;" d="M922.165,20.568l-1.607,0.804l-3.571-3.929l3.883-7.414"/>
		<path id="path7594" style="fill:none;" d="M917.336,21.804l-3.029-3.558l1.964-5.625"/>
		<path id="path7596" style="fill:none;" d="M809.486,29.675c0,0,5.995,5.546,7.857-3.125l0.893-5.625"/>
		<path id="path7598" style="fill:none;" d="M817.701,24.229h2.589"/>
		<path id="path7600" style="fill:none;" d="M817.701,26.372l0.982,2.321l3.839-1.875l-0.569-6.976"/>
		<path id="path7602" style="fill:none;" d="M820.558,28.247l1.662,1.463l4.64-2.606"/>
		<path id="path7604" style="fill:#6D351B;stroke:#26121A;stroke-width:0.265;stroke-linecap:round;stroke-linejoin:round;" d="    M823.916,28.281l-5.233,0.412l0.167,2.932l4.87-0.008"/>
		<path id="path7608" style="fill:none;" d="M915.127,22.436l3.936-1.047l0.252,3.472l-3.283-0.126"/>
		<path id="path7727" style="fill:#CF4DFA;" d="M840.587,107.441l3.914-2.147c0,0-4.041-4.546,0.253-6.313    c4.293-1.768,6.566,8.586,0.505,9.596c0,0,7.829,2.273,5.177,8.207c-2.652,5.935-10.607,2.147-7.829-1.263l-4.293-2.652    c0,0-2.399,11.238,6.313,11.996c8.713,0.758,11.996-4.798,11.238-8.713c-0.758-3.914-5.556-7.071-5.556-7.071    s6.061-3.409,5.808-7.45c-0.252-4.041-7.45-8.46-13.132-6.061C837.304,97.971,837.683,105.042,840.587,107.441L840.587,107.441z"/>
		<g>
			<defs>
				<path id="SVGID_00000111898040827898219160000003330296634567443346_" d="M840.587,107.441l3.914-2.147      c0,0-4.041-4.546,0.253-6.313s6.566,8.586,0.505,9.596c0,0,7.829,2.273,5.177,8.207c-2.652,5.935-10.607,2.147-7.829-1.263      l-4.293-2.652c0,0-2.399,11.238,6.313,11.996c8.713,0.758,11.996-4.798,11.238-8.713c-0.758-3.914-5.556-7.071-5.556-7.071      s6.061-3.409,5.808-7.45c-0.252-4.041-7.45-8.46-13.132-6.061C837.304,97.971,837.683,105.042,840.587,107.441L840.587,107.441z      "/>
			</defs>
			<use xmlns:xlink="http://www.w3.org/1999/xlink" xlink:href="#SVGID_00000111898040827898219160000003330296634567443346_" style="overflow:visible;fill:#183236;"/>
			<clipPath id="SVGID_00000009566883919983749410000006011715760231765436_">
				<use xmlns:xlink="http://www.w3.org/1999/xlink" xlink:href="#SVGID_00000111898040827898219160000003330296634567443346_" style="overflow:visible;"/>
			</clipPath>
			<path id="path7729" style="clip-path:url(#SVGID_00000009566883919983749410000006011715760231765436_);fill:#0E1D1F;" d="     M835.031,104.032c0,0,18.814-3.914,25.38,8.713c6.566,12.627,9.975-18.562,9.975-18.562l-25.885-10.607l-20.203,11.238     L835.031,104.032z"/>
		</g>
	</g>
</svg>