<?xml version="1.0" encoding="utf-8"?>
<!-- Generator: Adobe Illustrator 27.5.0, SVG Export Plug-In . SVG Version: 6.00 Build 0)  -->
<svg version="1.1" xmlns="http://www.w3.org/2000/svg" xmlns:xlink="http://www.w3.org/1999/xlink" x="0px" y="0px"
	 viewBox="0 0 750 500" style="enable-background:new 0 0 750 500;" xml:space="preserve">
<g xmlns="http://www.w3.org/2000/svg" id="g4415" transform="translate(-177.64913,71.188935)">
		<path id="path4098" style="fill:#008E64;" d="M613.204,150.675c0,0-21.073,53.413-10.467,87.759l-0.505,9.596l4.041,5.051    l3.03-5.556l11.112-4.041l27.779-69.701L613.204,150.675z"/>
		<path id="path4100" style="fill:#008E64;" d="M619.782,241.452c0,0,8.013,12.303-1.237,33.693s-13.297,48.287-13.297,48.287    l-9.979,1.648l6.963-77.048L619.782,241.452z"/>
		<path id="path4072" style="fill:#59C98C;" d="M621.804,139.099c0,0-11.429,12.857-8.214,24.107s24.643,18.929,24.643,18.929    s12.763-20.365,32.704-21.719c0,0-3.114-19.3-19.49-26.317C624.369,130.504,621.804,139.099,621.804,139.099z"/>
		<path id="path3988-2" style="fill:#E09567;" d="M656.543,52.046c0,0,3.907-5.54,5.191,1.507c1.284,7.047-3.941,8.594-5.59,8.286    C654.496,61.531,656.543,52.046,656.543,52.046z"/>
		<path id="path4028-7" style="fill:#470025;" d="M657.033,59.511c0,0,8.178,6.758,1.337,11.979    c-6.841,5.221,5.227,3.873,0.049,8.716c-5.178,4.843-1.327,5.463-1.327,5.463s-5.305,0.003-3.338-3.109s5.836-3.843,2.938-6.285    c-2.899-2.442-4.618-1.608-2.808-4.611C655.695,68.662,657.033,59.511,657.033,59.511L657.033,59.511z"/>
		<path id="path3988" style="fill:#E09567;" d="M624.483,56.063c0,0-5.179-4.375-4.643,2.768s5.982,7.321,7.5,6.607    C628.858,64.724,624.483,56.063,624.483,56.063z"/>
		<path id="path4028" style="fill:#470025;" d="M625.339,61.657c0,0-7.321,7.679,0.089,12.054c7.411,4.375-4.732,4.464,0.982,8.661    s1.964,5.268,1.964,5.268s5.268-0.625,2.946-3.482c-2.321-2.857-6.25-3.125-3.661-5.893s4.396-2.143,2.242-4.911    C627.75,70.586,625.339,61.657,625.339,61.657L625.339,61.657z"/>
		<path id="path4005" style="fill:#470025;" d="M625.339,61.657c0,0-8.018-10.796-2.589-13.448    c-6.058-22.31,31.525-29.518,34.345-4.23c5.908,1.433-0.063,15.531-0.063,15.531L625.339,61.657z"/>
		<path id="path3917" style="fill:#E09567;" d="M630.029,70.885c0,0,8.389,13.214-0.102,20.714c0,0,10.71,20.893,24.02-1.071    c0,0-6.399-0.357-1.81-21.964C656.727,46.956,620.62,52.67,630.029,70.885L630.029,70.885z"/>
		<path id="path3915" style="fill:#FFB588;" d="M623.95,50.041c2.857-18.214,28.224-19.325,32.927-0.179    c5.239,25.575-15.367,26.48-15.367,26.48S620.92,76.304,623.95,50.041L623.95,50.041z"/>
		<g>
			<defs>
				<path id="SVGID_1_" d="M630.029,70.885c0,0,8.389,13.214-0.102,20.714c0,0,10.71,20.893,24.02-1.071      c0,0-6.399-0.357-1.809-21.964C656.727,46.956,620.62,52.67,630.029,70.885z"/>
			</defs>
			<clipPath id="SVGID_00000058582082668138834740000005634768315328079524_">
				<use xmlns:xlink="http://www.w3.org/1999/xlink" xlink:href="#SVGID_1_" style="overflow:visible;"/>
			</clipPath>
			<path id="path3919" style="clip-path:url(#SVGID_00000058582082668138834740000005634768315328079524_);fill:#FFB588;" d="     M654.483,73.92c0,0-15.536,15.357-28.214,16.429c-12.679,1.071-1.429,15.179-1.429,15.179l41.429-4.643l-1.071-22.679     L654.483,73.92z"/>
		</g>
		<path id="path3950" style="fill:none;" d="M644.722,52.44c0,0,5.051-4.483,6.755-0.631"/>
		<path id="path3952" style="fill:none;" d="M634.999,53.892c0,0-7.134-2.525-7.197,1.831"/>
		<circle id="path3971" style="fill:#E09567;" cx="631.4" cy="59.902" r="4.681"/>
		<circle id="path3971_1_" style="fill:#E09567;" cx="651.477" cy="56.14" r="4.681"/>
		<path id="path4070" style="fill:#FFB588;" d="M631.912,88.775c0,0-11.025-0.036-20.774,10.798    c-8.025,8.917-21.166,33.151-20.763,38.633c4.818,10.567,8.74,7.29,22.828,12.469l1.964-6.964    c-5.257-2.502-5.135-8.841-10.328-11.219c0,0,8.18-12.766,14.286-17.857C626.247,108.697,631.912,88.775,631.912,88.775    L631.912,88.775z"/>
		<path id="path4045" style="fill:#183236;" d="M620.911,95.349c0,0,16.715-11.561,39.196-13.032    c5.649-0.37,10.264,4.412,9.804,10.054c-0.596,7.3-3.509,17.584-13.465,27.442l-4.643,14.286c0,0-23.929-2.143-30,5    c0,0-4.821-11.071-3.571-20.357c0,0-0.098-0.061-0.271-0.182c-5.683-3.968-6.85-11.894-2.701-17.447    C617.152,98.58,619.284,96.124,620.911,95.349L620.911,95.349z"/>
		<g>
			<defs>
				<path id="SVGID_00000129188325250244142070000009852697763825973138_" d="M620.911,95.349c0,0,21.429-14.821,48.393-13.036      c0,0,5.357,19.464-12.857,37.5l-4.643,14.286c0,0-23.929-2.143-30,5c0,0-4.821-11.071-3.571-20.357c0,0-0.098-0.061-0.271-0.182      c-5.684-3.968-6.85-11.894-2.701-17.447C617.152,98.58,619.284,96.124,620.911,95.349L620.911,95.349z"/>
			</defs>
			<clipPath id="SVGID_00000120518078252545534450000002320918256917350818_">
				<use xmlns:xlink="http://www.w3.org/1999/xlink" xlink:href="#SVGID_00000129188325250244142070000009852697763825973138_" style="overflow:visible;"/>
			</clipPath>
			<path id="path4049" style="clip-path:url(#SVGID_00000120518078252545534450000002320918256917350818_);fill:#0E1D1F;" d="     M610.733,107.849c11.223,10.991,6.534-3.635,24.077,1.159c12.857,3.514,23.63-9.386,23.63-9.386l10.21-7.407l12.627,10.733     l-10.859,27.905l-31.694,15.657c0,0-6.132-24.98-20.491-27.768C603.874,115.953,610.733,107.849,610.733,107.849z"/>
		</g>
		<path id="path4088" style="fill:#470025;" d="M635.691,131.443c0,0,7.621,0.912,18.336-1.052l3.899,6.634    c-13.304,5.804-19.932,4.748-19.932,4.748s-13.694,1.056-18.872-0.64l0.163-6.581l7.577-2.074L635.691,131.443z"/>
		<path id="path4047" style="fill:#FFB588;" d="M654.195,100.675c-0.987-6.498,1.129-10.832,3.655-13.603    c2.765-3.033,7.527-3.114,10.537-0.324c1.885,1.747,4.038,3.761,5.683,5.346c18.19,17.53,29.412,33.882,29.412,33.882    c-9.653,14.79-23.871,14.68-40.404,22.326l-4.375-6.494c9.743-3.224,14.967-11.649,23.615-18.978c0,0-11.797-7.222-21.353-13.269    C657.781,107.547,655.638,103.898,654.195,100.675L654.195,100.675z"/>
		<g id="g4086" transform="rotate(4.7883739,2.7998272,76.54946)">
			<path id="path4076" style="fill:#EE881B;" d="M626.069,90.921l3.914,1.263l13.637-1.768L642.61,76.4l-2.525-2.399L626.069,90.921     z"/>
			<path id="path4074" style="fill:#FFC434;" d="M624.806,77.284l1.263,13.637l15.152-2.399l-1.136-14.521L624.806,77.284z"/>
			<path id="path4078" style="fill:#54000D;" d="M628.279,87.954l-0.947-9.281l10.48-2.399l0.758,10.165L628.279,87.954z"/>
			<path id="path4080" style="fill:#EE881B;" d="M628.279,87.954l-0.947-9.281l10.48-2.399l0.253,2.147l-8.713,1.768l0.505,7.576     L628.279,87.954z"/>
		</g>
		<path id="path4094" style="fill:#59C98C;" d="M638.233,182.135l26.629,67.411l16.162,4.041l7.071-12.627l-17.158-80.544    C670.937,160.415,647.969,155.13,638.233,182.135L638.233,182.135z"/>
		<path id="path4096" style="fill:#59C98C;" d="M664.862,249.546l25.759,75.256l10.102-1.515l-12.627-82.327L664.862,249.546z"/>
		<path id="path4102" style="fill:#FFB588;" d="M605.248,323.431l2.54,9.704c0,0-11.617,3.03-35.86,3.788    c0,0,6.024-8.538,23.341-11.845L605.248,323.431z"/>
		<path id="path4104" style="fill:#FFB588;" d="M690.62,324.802c0,0-7.829,19.698,9.091,25.254c0,0,21.466-8.586,1.01-26.769    L690.62,324.802z"/>
		<g>
			<defs>
				<path id="SVGID_00000078022655355315191960000005609578062022752683_" d="M605.248,323.431l2.54,9.704      c0,0-11.617,3.03-35.86,3.788c0,0,6.024-8.538,23.341-11.845L605.248,323.431z"/>
			</defs>
			<clipPath id="SVGID_00000136383473508551351900000002935508065792858554_">
				<use xmlns:xlink="http://www.w3.org/1999/xlink" xlink:href="#SVGID_00000078022655355315191960000005609578062022752683_" style="overflow:visible;"/>
			</clipPath>
			<path id="path4106" style="clip-path:url(#SVGID_00000136383473508551351900000002935508065792858554_);" d="M577.104,329.853     c11.701,3.441,26.815,2.547,31.567-4.672l4.546,11.364l-22.35,8.46c0,0-24.244-3.914-24.749-3.914     S577.104,329.853,577.104,329.853z"/>
		</g>
		<g>
			<defs>
				<path id="SVGID_00000183242884852296560340000006653831637855485854_" d="M690.62,324.802c0,0-7.829,19.698,9.091,25.254      c0,0,21.466-8.586,1.01-26.769L690.62,324.802z"/>
			</defs>
			<clipPath id="SVGID_00000033345060756464053360000017385044586899473301_">
				<use xmlns:xlink="http://www.w3.org/1999/xlink" xlink:href="#SVGID_00000183242884852296560340000006653831637855485854_" style="overflow:visible;"/>
			</clipPath>
			<path id="path4108" style="clip-path:url(#SVGID_00000033345060756464053360000017385044586899473301_);" d="M687.085,325.812     c0,0,2.525,17.804,13.511,15.784c10.985-2.02,6.692-15.026,6.692-15.026l9.975,6.061l-4.798,17.93l-16.036,6.692l-18.056-18.814     L687.085,325.812z"/>
		</g>
		<g transform="matrix(-0.174155,2.43253,2.19421,0.10325,-281.117,-175.191)">
			<path style="fill-rule:evenodd;clip-rule:evenodd;fill:#FFB588;" d="M112.653,437.168c0,0-0.307-1.553-0.903-1.595     c-0.449-0.032-0.278,1.792-0.383,2.496c-0.086,0.577,0.006,0.925-0.248,1.733c-0.076,0.239-2.515,4.11-2.572,4.342     c-0.387,1.561,3.099,1.243,3.665,0.176c1.592-3.006,2.723-4.713,3.104-5.163c0.593-0.702,1.26-1.298,1.952-1.869     c0.595-0.492,2.439-1.729,2.313-1.82c-0.168-0.119-0.424-0.028-0.61,0.047c-0.704,0.282-1.399,0.556-2.076,0.993     c-0.22,0.143-0.44,0.285-0.66,0.427c-0.113,0.073-0.346,0.202-0.346,0.202s0.205-0.189,0.306-0.284     c0.193-0.183,0.426-0.334,0.613-0.526c0.548-0.566,2.388-1.878,2.572-2.161c0.05-0.079,0.218-0.249,0.09-0.341     c-0.181-0.128-1.588,0.685-1.947,0.937c-0.755,0.529-1.601,1.073-1.812,1.209c-0.026,0.016-0.196,0.153-0.225,0.146     c-0.046-0.012,0.129-0.185,0.137-0.198c0.122-0.187,3.058-3.229,2.93-3.262c-0.289-0.075-0.661,0.189-0.957,0.38     c-0.748,0.483-1.409,1.167-2.064,1.811c-0.225,0.22-0.442,0.444-0.678,0.655c-0.037,0.033-0.213,0.25-0.266,0.237     c-0.033-0.009,0.13-0.157,0.146-0.181c0.097-0.15,0.285-0.324,0.396-0.494c0.398-0.613,0.96-1.215,1.43-1.771     c0.19-0.226,0.758-0.793,0.695-0.883c-0.207-0.291-2.373,1.874-2.749,2.319C113.639,435.751,113.389,436.031,112.653,437.168z"/>
		</g>
		<g transform="matrix(-0.174155,2.43253,2.19421,0.10325,-281.117,-175.191)">
			<path style="fill-rule:evenodd;clip-rule:evenodd;fill:#FFB588;" d="M114.079,418.084c0,0-0.093,1.453-0.616,1.447     c-0.394-0.004-0.454-1.725-0.628-2.404c-0.143-0.556-0.102-0.879-0.42-1.667c-0.095-0.233-2.702-4.104-2.78-4.329     c-0.523-1.514,2.601-0.942,3.226,0.117c1.758,2.982,2.957,4.693,3.346,5.151c0.606,0.713,1.266,1.332,1.945,1.929     c0.584,0.514,2.36,1.834,2.259,1.91c-0.135,0.1-0.372-0.006-0.546-0.092c-0.656-0.323-1.304-0.637-1.953-1.105     c-0.212-0.153-0.423-0.305-0.634-0.457c-0.109-0.079-0.33-0.219-0.33-0.219s0.203,0.195,0.304,0.294     c0.192,0.189,0.416,0.351,0.603,0.548c0.551,0.58,2.332,1.971,2.528,2.255c0.054,0.079,0.222,0.253,0.119,0.331     c-0.145,0.108-1.486-0.774-1.833-1.042c-0.729-0.562-1.542-1.145-1.745-1.291c-0.025-0.018-0.191-0.161-0.216-0.156     c-0.039,0.007,0.136,0.186,0.144,0.198c0.129,0.188,3.081,3.308,2.972,3.329c-0.248,0.048-0.607-0.231-0.891-0.435     c-0.718-0.517-1.382-1.219-2.038-1.883c-0.224-0.227-0.442-0.456-0.676-0.675c-0.037-0.034-0.218-0.255-0.263-0.246     c-0.028,0.006,0.133,0.159,0.15,0.184c0.104,0.15,0.29,0.331,0.407,0.501c0.424,0.614,0.991,1.23,1.471,1.795     c0.195,0.229,0.763,0.813,0.717,0.894c-0.15,0.261-2.319-1.966-2.703-2.418C115.116,419.508,114.862,419.222,114.079,418.084z"/>
		</g>
	</g>
</svg>