<svg width="16" height="16" viewBox="0 0 16 16" fill="none" xmlns="http://www.w3.org/2000/svg">
<path d="M4.60016 7.62961V9.48146M4.60016 7.62961V3.18516C4.60016 2.57151 5.10757 2.07405 5.7335 2.07405C6.35942 2.07405 6.86683 2.57152 6.86683 3.18516M4.60016 7.62961C4.60016 7.01596 4.09275 6.5185 3.46683 6.5185C2.84091 6.5185 2.3335 7.01596 2.3335 7.62961V9.11109C2.3335 12.1793 4.87055 14.6666 8.00016 14.6666C11.1298 14.6666 13.6668 12.1793 13.6668 9.11109V5.40739C13.6668 4.79374 13.1594 4.29628 12.5335 4.29628C11.9076 4.29628 11.4002 4.79374 11.4002 5.40739M6.86683 3.18516V7.25924M6.86683 3.18516V2.44442C6.86683 1.83077 7.37424 1.33331 8.00016 1.33331C8.62609 1.33331 9.1335 1.83077 9.1335 2.44442V3.18516M9.1335 3.18516V7.25924M9.1335 3.18516C9.1335 2.57152 9.64091 2.07405 10.2668 2.07405C10.8928 2.07405 11.4002 2.57152 11.4002 3.18516V5.40739M11.4002 5.40739V7.25924" stroke="#D2D6D9" stroke-linecap="round" stroke-linejoin="round"/>
</svg>
