<?xml version="1.0" encoding="utf-8"?>
<svg height="18pt" viewBox="0 0 13 18" width="13pt" x="0pt" xmlns="http://www.w3.org/2000/svg" y="0pt"
>
    <g id="Layer 1">
        <path d="M9.73447,1.86224 C9.73447,1.86224,9.99587,2.09675,9.99587,2.09675 C10.9666,3.08932,11.5859,4.44189,11.7218,5.91118 C11.8694,7.50701,11.4333,9.09673,10.5173,10.3349 C9.88459,11.1531,9.52883,12.1751,9.50101,13.2335 C9.50101,13.2335,9.50084,13.2335,9.50084,13.2335 C9.50084,13.2335,9.50084,13.2466,9.50084,13.2466 C9.50084,13.2466,9.50084,15.5456,9.50084,15.5456 C9.50084,16.0773,9.3068,16.5794,8.97322,16.9432 C8.64097,17.3056,8.20012,17.5,7.75064,17.5 C7.75064,17.5,4.75037,17.5,4.75037,17.5 C4.30089,17.5,3.86003,17.3056,3.52778,16.9432 C3.1942,16.5794,3.00016,16.0773,3.00016,15.5456 C3.00016,15.5456,3.00016,13.0912,3.00016,13.0912 C3.00016,13.0912,3.00016,13.0841,3.00016,13.0841 C3.00016,13.0841,2.99996,13.077,2.99996,13.077 C2.9723,12.1067,2.63499,11.1717,2.03843,10.4344 C1.5156,9.74541,1.13612,8.93663,0.929354,8.06468 C0.722066,7.19052,0.694034,6.27663,0.84746,5.38888 C1.0579,4.20531,1.58498,3.12194,2.35601,2.27424 C3.12687,1.42672,4.1057,0.853738,5.16547,0.620246 C5.16547,0.620246,5.16644,0.620031,5.16644,0.620031 C5.96243,0.443001,6.78427,0.461967,7.57307,0.675775 C8.36206,0.889634,9.10085,1.29383,9.73447,1.86224 z M4.0003,14.2275 C4.0003,14.2275,3.5003,14.2275,3.5003,14.2275 C3.5003,14.2275,3.5003,14.7275,3.5003,14.7275 C3.5003,14.7275,3.5003,15.5456,3.5003,15.5456 C3.5003,15.8819,3.62236,16.2121,3.85143,16.462 C3.85143,16.462,4.20605,16.1369,4.20605,16.1369 C4.20605,16.1369,3.85144,16.462,3.85144,16.462 C4.08184,16.7133,4.40412,16.8637,4.75037,16.8637 C4.75037,16.8637,7.75064,16.8637,7.75064,16.8637 C8.09688,16.8637,8.41916,16.7133,8.64957,16.462 C8.87864,16.2121,9.00071,15.8819,9.00071,15.5456 C9.00071,15.5456,9.00071,14.7275,9.00071,14.7275 C9.00071,14.7275,9.00071,14.2275,9.00071,14.2275 C9.00071,14.2275,8.50071,14.2275,8.50071,14.2275 C8.50071,14.2275,4.0003,14.2275,4.0003,14.2275 z M10.1489,9.92809 C10.1489,9.92809,10.149,9.92813,10.149,9.92813 C10.149,9.92813,10.1534,9.9222,10.1534,9.9222 C10.8712,8.9646,11.2567,7.77032,11.2509,6.54501 C11.2511,5.74898,11.089,4.9616,10.7749,4.23957 C10.4606,3.51707,10.0011,2.87632,9.42711,2.36573 C8.85295,1.85498,8.17855,1.48739,7.45186,1.29296 C6.72498,1.09848,5.96677,1.08294,5.23336,1.24765 C5.23336,1.24765,5.23278,1.24778,5.23278,1.24778 C4.37947,1.44048,3.59124,1.87006,2.94335,2.48948 C2.29576,3.10861,1.81018,3.89633,1.52968,4.77356 C1.24922,5.65071,1.1822,6.59079,1.3344,7.50326 C1.4866,8.41576,1.85351,9.27336,2.4031,9.9916 C2.4031,9.9916,2.40301,9.99167,2.40301,9.99167 C2.40301,9.99167,2.40965,9.99998,2.40965,9.99998 C3.0931,10.8549,3.48225,11.9522,3.50036,13.0991 C3.50036,13.0991,3.50813,13.5912,3.50813,13.5912 C3.50813,13.5912,4.0003,13.5912,4.0003,13.5912 C4.0003,13.5912,5.50043,13.5912,5.50043,13.5912 C5.50043,13.5912,6.00043,13.5912,6.00043,13.5912 C6.00043,13.5912,6.00043,13.0912,6.00043,13.0912 C6.00043,13.0912,6.00043,10.6368,6.00043,10.6368 C6.00043,10.5391,6.03642,10.4532,6.08868,10.3962 C6.1396,10.3406,6.19889,10.3187,6.2505,10.3187 C6.30212,10.3187,6.36141,10.3406,6.41233,10.3962 C6.46458,10.4532,6.50057,10.5391,6.50057,10.6368 C6.50057,10.6368,6.50057,13.0912,6.50057,13.0912 C6.50057,13.0912,6.50057,13.5912,6.50057,13.5912 C6.50057,13.5912,7.00057,13.5912,7.00057,13.5912 C7.00057,13.5912,8.50071,13.5912,8.50071,13.5912 C8.50071,13.5912,8.97832,13.5912,8.97832,13.5912 C8.97832,13.5912,9.00018,13.1141,9.00018,13.1141 C9.05405,11.9384,9.45991,10.8195,10.1489,9.92809 z"
              id="Path 1"
              style="fill:#000000;fill-opacity:1;fill-rule:evenodd;opacity:1;stroke:#000000;stroke-linecap:butt;stroke-linejoin:miter;stroke-miterlimit:4;stroke-opacity:1;stroke-width:1;"/>
    </g>
</svg>
