<svg fill="none" height="18" viewBox="0 0 13 18" width="13" xmlns="http://www.w3.org/2000/svg">
    <path d="M9.73447 1.86224L9.99587 2.09675C10.9666 3.08932 11.5859 4.44189 11.7218 5.91118C11.8694 7.50701 11.4333 9.09673 10.5173 10.3349C9.88459 11.1531 9.52883 12.1751 9.50101 13.2335L9.50084 13.2335V13.2466V15.5456C9.50084 16.0773 9.3068 16.5794 8.97322 16.9432C8.64097 17.3056 8.20012 17.5 7.75064 17.5H4.75037C4.30089 17.5 3.86003 17.3056 3.52778 16.9432C3.1942 16.5794 3.00016 16.0773 3.00016 15.5456V13.0912V13.0841L2.99996 13.077C2.9723 12.1067 2.63499 11.1717 2.03843 10.4344C1.5156 9.74541 1.13612 8.93663 0.929354 8.06468C0.722066 7.19052 0.694034 6.27663 0.84746 5.38888C1.0579 4.20531 1.58498 3.12194 2.35601 2.27424C3.12687 1.42672 4.1057 0.853738 5.16547 0.620246L5.16644 0.620031C5.96243 0.443001 6.78427 0.461967 7.57307 0.675775C8.36206 0.889634 9.10085 1.29383 9.73447 1.86224ZM4.0003 14.2275H3.5003V14.7275V15.5456C3.5003 15.8819 3.62236 16.2121 3.85143 16.462L4.20605 16.1369L3.85144 16.462C4.08184 16.7133 4.40412 16.8637 4.75037 16.8637H7.75064C8.09688 16.8637 8.41916 16.7133 8.64957 16.462C8.87864 16.2121 9.00071 15.8819 9.00071 15.5456V14.7275V14.2275H8.50071H4.0003ZM10.1489 9.92809L10.149 9.92813L10.1534 9.9222C10.8712 8.9646 11.2567 7.77032 11.2509 6.54501C11.2511 5.74898 11.089 4.9616 10.7749 4.23957C10.4606 3.51707 10.0011 2.87632 9.42711 2.36573C8.85295 1.85498 8.17855 1.48739 7.45186 1.29296C6.72498 1.09848 5.96677 1.08294 5.23336 1.24765L5.23278 1.24778C4.37947 1.44048 3.59124 1.87006 2.94335 2.48948C2.29576 3.10861 1.81018 3.89633 1.52968 4.77356C1.24922 5.65071 1.1822 6.59079 1.3344 7.50326C1.4866 8.41576 1.85351 9.27336 2.4031 9.9916L2.40301 9.99167L2.40965 9.99998C3.0931 10.8549 3.48225 11.9522 3.50036 13.0991L3.50813 13.5912H4.0003H5.50043H6.00043V13.0912V10.6368C6.00043 10.5391 6.03642 10.4532 6.08868 10.3962C6.1396 10.3406 6.19889 10.3187 6.2505 10.3187C6.30212 10.3187 6.36141 10.3406 6.41233 10.3962C6.46458 10.4532 6.50057 10.5391 6.50057 10.6368V13.0912V13.5912H7.00057H8.50071H8.97832L9.00018 13.1141C9.05405 11.9384 9.45991 10.8195 10.1489 9.92809Z"
          fill="black" stroke="#A1EAFB"/>
</svg>
